<svg width="1440" height="900" viewBox="0 0 1440 900" fill="none" xmlns="http://www.w3.org/2000/svg">
<g opacity="0.15" style="mix-blend-mode:screen">
<path d="M2189.19 130.256C2194.27 130.256 2194.27 122.266 2189.19 122.266C2161.58 122.629 2133.97 124.082 2106.36 126.261C2106 126.261 2105.64 126.261 2105.27 126.261C2089.47 127.533 2073.85 129.167 2058.05 131.164C2056.78 71.2379 2053.51 11.3113 2047.88 -48.4337C2076.94 -48.4337 2105.82 -48.9785 2134.88 -50.6128C2139.96 -50.976 2139.96 -58.7846 2134.88 -58.603C2105.64 -56.9687 2076.39 -56.6055 2047.15 -56.4239C2046.24 -64.7773 2045.52 -73.1307 2044.61 -81.4841C2044.06 -86.5688 2036.07 -86.5688 2036.62 -81.4841C2037.53 -73.1307 2038.43 -64.7773 2039.16 -56.2423C2020.27 -56.2423 2001.38 -56.2423 1982.49 -56.2423C1979.41 -120.89 1975.23 -185.72 1970.14 -250.186C1969.78 -255.271 1961.79 -255.271 1962.15 -250.186C1967.42 -185.538 1971.41 -120.89 1974.68 -56.0607C1945.26 -55.8791 1915.84 -55.3343 1886.41 -53.5184C1886.59 -86.024 1886.96 -118.53 1887.14 -151.035C1887.14 -156.12 1879.15 -156.12 1879.15 -151.035C1878.97 -117.258 1878.6 -83.4816 1878.42 -49.7048C1878.42 -49.3416 1878.42 -48.7969 1878.42 -48.4337C1878.06 -5.57709 1877.88 37.0979 1877.51 79.9545C1854.26 79.9545 1831.02 80.1361 1807.77 80.8625V6.58981V1.50514C1808.13 -37.5379 1808.68 -76.581 1807.77 -115.624C1807.59 -120.709 1799.59 -120.709 1799.78 -115.624C1800.32 -96.7381 1800.32 -50.4312 1800.32 -1.7636H1777.62C1778.34 -52.4288 1777.25 -102.912 1773.8 -153.396C1773.44 -158.481 1765.45 -158.481 1765.81 -153.396C1769.08 -102.912 1770.35 -52.2472 1769.62 -1.7636H1698.25H1608.7C1604.53 -64.7773 1599.98 -129.607 1598.17 -156.665C1597.8 -161.749 1589.81 -161.749 1590.18 -156.665C1594.54 -95.2854 1599.08 -34.0876 1603.07 27.2917C1592.36 27.1101 1581.64 26.9285 1570.92 26.7469C1570.38 -8.11945 1570.56 -42.9858 1572.92 -77.6706C1573.29 -82.7553 1565.29 -82.7553 1564.93 -77.6706C1561.3 -25.1894 1562.57 27.8365 1564.02 80.4993C1529.33 79.4097 1494.64 78.3201 1459.95 77.0489C1457.04 76.8673 1455.95 79.2281 1456.14 81.4073C1456.14 81.5888 1455.95 81.5888 1455.95 81.7704C1455.41 101.201 1455.59 120.632 1456.5 140.063C1439.06 140.244 1421.63 140.244 1404.19 140.607C1406.55 93.7557 1407.28 46.9041 1406.01 0.0523682C1404.73 -46.2545 1397.29 -93.2878 1399.1 -139.595C1399.29 -144.679 1391.29 -144.679 1391.11 -139.595C1389.3 -93.2878 1396.74 -46.2545 1398.01 0.0523682C1398.56 21.2991 1398.74 42.3642 1398.56 63.6109C1371.68 65.4268 1344.62 66.3348 1317.73 66.1532C1316.28 1.50513 1314.1 -62.9613 1310.83 -127.609C1310.65 -132.694 1302.66 -132.694 1302.84 -127.609C1307.2 -37.7195 1309.92 52.3519 1311.01 142.423C1291.4 142.968 1271.96 143.695 1252.35 144.603C1253.44 107.92 1253.07 71.2379 1251.62 34.5555C1253.44 32.1948 1252.35 28.0181 1248.72 28.0181C1236.73 28.3813 1224.74 28.7445 1212.75 29.1077C1212.57 2.23151 1212.39 -24.6446 1212.57 -51.7024C1212.57 -56.7871 1204.58 -56.7871 1204.58 -51.7024C1204.04 20.7543 1205.31 93.2109 1207.12 165.668C1193.5 167.302 1180.06 167.665 1166.26 166.757C1164.08 166.576 1162.81 168.028 1162.62 169.663C1161.53 170.752 1160.99 172.387 1162.26 174.021C1163.9 176.2 1162.26 181.285 1162.08 184.009C1161.72 189.093 1161.53 194.178 1161.35 199.263C1161.17 207.435 1161.35 215.606 1161.72 223.778L1125.39 222.507C1125.03 123.901 1122.3 25.2942 1101.6 -71.4963C1100.51 -76.581 1092.88 -74.4019 1093.97 -69.3172C1099.78 -42.2594 1103.96 -15.0201 1107.23 12.4009C1068 12.0377 1028.95 12.5825 989.714 13.4904C990.259 12.9456 990.441 12.0377 990.441 11.1297C986.99 -38.9907 985.537 -89.1111 985.537 -139.232C985.537 -144.316 977.545 -144.316 977.545 -139.232C977.363 -89.1111 978.998 -38.8091 982.449 11.1297C982.449 12.2193 982.994 13.1273 983.72 13.6721C951.754 14.58 919.787 15.8512 887.821 17.4856C886.549 -7.75624 885.823 -32.998 887.276 -58.4214C887.639 -63.5061 879.648 -63.5061 879.284 -58.4214C876.378 -7.02985 882.735 43.9985 883.098 95.2085C883.098 97.9324 883.098 100.656 883.098 103.38C866.207 103.017 849.316 102.836 832.243 102.472C824.977 102.291 817.531 102.109 810.266 101.928C808.268 65.9716 806.27 30.0157 804.272 -5.94029C803.909 -11.025 796.099 -11.025 796.28 -5.94029L798.46 34.5555C757.957 33.6476 717.454 32.1948 677.132 32.3764C678.585 -1.40039 681.491 -34.9956 677.677 -68.7724C677.132 -73.8571 669.141 -73.8571 669.685 -68.7724C673.5 -34.9956 670.594 -1.40039 669.141 32.3764C668.596 32.3764 668.051 32.3764 667.688 32.3764C626.458 32.7396 585.41 38.369 544.18 35.1003C545.452 2.59473 546.178 -30.0925 546.36 -62.5981C546.36 -67.6828 538.368 -67.6828 538.368 -62.5981C538.187 24.023 532.92 110.281 528.197 196.721C504.222 198.355 480.066 199.081 455.909 199.263C456.091 174.384 457.726 149.324 458.815 124.445C461.54 65.6084 464.083 6.77142 466.807 -52.0656C466.989 -57.1503 458.997 -57.1503 458.815 -52.0656C456.091 6.77142 453.548 65.6084 450.824 124.445C450.642 128.985 450.46 133.707 450.097 138.247C417.404 138.973 384.711 138.973 352.2 138.61C352.381 77.049 351.473 15.488 349.475 -46.0729C349.294 -51.1576 341.302 -51.1576 341.484 -46.0729C342.392 -20.8311 342.937 4.41064 343.482 29.4709C296.803 33.2844 250.125 35.1003 203.446 35.6451V35.4635C205.989 6.4082 206.897 -22.4655 206.534 -51.5208C206.534 -56.6055 198.542 -56.6055 198.542 -51.5208C198.906 -22.4655 197.997 6.58981 195.455 35.4635C195.455 35.6451 195.455 35.6451 195.455 35.6451C149.139 36.1899 103.006 35.8267 56.5092 35.4635C56.5092 24.3862 56.5092 13.3088 56.6908 2.23151C56.6908 -2.85316 48.6992 -2.85316 48.6992 2.23151C48.6992 14.9432 48.6992 27.6549 48.5175 40.3666C34.1689 40.185 20.0019 39.8218 5.65332 39.6402C7.10635 4.22906 7.83286 -31.3637 8.01448 -66.7748C8.01448 -71.8595 0.0228424 -71.8595 0.0228424 -66.7748C0.0228424 -31.3637 -0.703667 4.04745 -2.33832 39.4586C-6.15251 39.4586 -10.1483 39.277 -13.9625 39.277C-15.9604 38.5507 -18.3216 39.277 -18.8665 41.8194C-21.2276 52.8967 -21.2276 63.7924 -21.4093 75.233C-21.5909 86.6735 -24.3153 97.5693 -25.2235 108.647C-37.2109 108.828 -49.1984 108.828 -61.1858 108.283C-66.2714 108.102 -66.2714 116.092 -61.1858 116.274C-32.3069 117.363 -3.42809 116.637 25.2691 114.276C33.624 149.142 27.6303 186.914 25.2691 222.144C25.2691 222.87 25.4508 223.415 25.6324 223.96C13.4633 223.96 1.29424 224.141 -10.6932 223.96C-15.7788 223.96 -15.7788 231.95 -10.6932 231.95C1.6575 232.132 13.8266 231.95 26.1773 231.95C24.7243 270.085 23.4529 308.402 21.9998 346.537C7.28797 346.9 -7.24228 347.263 -21.9541 347.627C-27.0397 347.808 -27.0397 355.798 -21.9541 355.617C1.47587 355.072 24.7243 354.527 48.1543 353.801C48.1543 393.207 48.1543 432.795 48.3359 472.201C44.7034 472.383 41.2524 472.564 37.6199 472.746C35.6219 470.022 29.9915 472.201 30.718 476.559C31.6261 482.552 31.9894 488.726 32.171 494.901C16.551 495.445 1.11261 496.172 -14.5074 497.261C-19.593 497.625 -19.593 505.615 -14.5074 505.252C6.01657 503.799 26.5405 502.891 47.2461 502.346C47.2461 511.426 47.2461 520.506 46.8829 529.767C39.7994 529.949 32.8975 530.312 25.814 530.493C24.5426 529.949 23.0896 529.949 21.8182 530.675C10.194 531.038 -1.43018 531.401 -13.0544 531.946C-18.14 532.128 -18.14 540.118 -13.0544 539.936C-1.97506 539.573 9.10425 539.21 20.0019 538.847C20.3652 563.907 20.3652 588.967 20.0019 613.846C14.3715 614.027 8.55936 614.209 2.92889 614.391C-2.70157 614.572 -9.9667 616.025 -15.4155 614.209C-20.3195 612.575 -22.499 620.383 -17.5951 621.836C-11.9646 623.652 -5.78925 622.562 0.0228424 622.381C1.29424 622.381 2.38401 622.381 3.6554 622.199C3.29215 642.538 2.92889 662.695 2.56564 683.034C-2.33832 683.034 -7.24228 683.215 -12.1462 683.215C-17.2318 683.215 -17.2318 691.206 -12.1462 691.206C17.8224 691.024 47.6094 690.479 77.578 689.753C77.9413 728.251 82.3004 766.568 79.2127 805.066C79.2127 805.248 79.2127 805.248 79.2127 805.429C48.3359 806.337 17.6408 806.519 -12.6911 803.977C-17.7767 803.613 -17.7767 811.422 -12.6911 811.967C47.0645 817.233 109 811.422 168.937 810.151C169.845 822.136 170.753 834.121 170.572 845.925C113.359 844.472 56.1459 844.472 -1.06692 846.288C-6.15251 846.47 -6.15251 854.46 -1.06692 854.279C26.5405 853.552 53.9664 853.007 81.5738 853.007C80.8473 865.174 80.6657 877.341 80.6657 889.508C74.1271 889.69 67.4069 889.69 60.8682 889.871C37.4382 890.598 13.2817 893.866 -9.9667 890.416C-15.0523 889.69 -17.2318 897.317 -12.1462 898.043C29.0833 904.217 73.9455 897.317 115.72 897.135C137.334 896.954 158.947 896.954 180.38 896.59C181.469 901.312 180.38 908.031 180.198 912.571C180.198 917.837 180.016 922.922 180.016 928.188C171.116 928.733 162.217 929.096 153.317 929.096C150.592 929.096 149.321 931.457 149.503 933.636C149.139 934.181 148.776 934.907 148.776 935.815C148.958 944.532 149.321 953.248 149.684 962.146C124.256 961.42 98.8285 961.238 73.4006 961.965C51.242 962.691 28.5385 965.597 6.37983 963.599C5.10843 962.51 3.11053 962.51 1.6575 963.236C-1.6118 962.873 -5.06274 962.328 -8.33204 961.602C-13.4176 960.512 -15.4155 968.321 -10.5116 969.229C-7.24228 969.955 -3.79134 970.5 -0.522041 970.863V988.841C-5.97088 989.386 -11.6014 990.112 -17.0502 990.657C-22.1358 991.202 -22.1358 999.192 -17.0502 998.647C-11.2381 998.102 -5.426 997.194 0.567726 996.65C2.20238 998.102 5.10844 997.921 6.56145 996.105C12.9184 995.742 19.2754 995.923 25.2691 997.376C25.4508 997.376 25.6324 997.376 25.814 997.376C25.0875 1012.09 24.361 1026.79 23.9977 1041.5C23.6345 1043.32 24.361 1045.14 26.3589 1045.68C26.9038 1045.86 27.4487 1046.04 27.9936 1046.04C27.9936 1051.31 28.1752 1056.76 28.1752 1062.02L-12.5095 1062.39C-17.5951 1062.39 -17.5951 1070.38 -12.5095 1070.38C1.11261 1070.2 14.7347 1070.2 28.3568 1070.01C28.5385 1082 28.5385 1093.98 28.9017 1105.97C29.0833 1111.05 37.075 1111.05 36.8933 1105.97C36.3485 1085.63 35.9852 1065.29 35.8036 1044.95C65.9538 1041.69 96.2857 1042.41 126.436 1042.77C126.254 1050.58 126.073 1058.21 125.709 1066.02C125.528 1070.56 124.256 1076.73 127.707 1080.37C128.252 1081.27 129.342 1082 130.795 1082C160.764 1081.09 190.551 1080.18 220.519 1079.46C225.605 1079.28 225.605 1071.29 220.519 1071.47C191.459 1072.38 162.217 1073.1 133.156 1074.01C132.43 1070.56 133.883 1060.93 133.883 1058.94C134.064 1053.67 134.246 1048.22 134.428 1042.96C150.593 1043.14 166.757 1043.32 182.922 1042.59C183.104 1042.59 183.286 1042.41 183.467 1042.41C196.181 1042.59 208.895 1042.77 221.609 1043.14C226.695 1043.14 226.695 1035.33 221.609 1035.15C209.985 1034.97 198.542 1034.78 186.918 1034.6C187.281 1028.43 187.463 1022.07 187.826 1015.9C188.008 1013.54 188.553 1010.27 188.553 1007C223.425 1006.64 258.298 1006.27 293.171 1006.09C294.987 1039.87 298.983 1074.74 296.077 1108.33C295.713 1113.42 303.523 1113.42 304.068 1108.33C305.703 1089.26 305.158 1069.83 303.887 1050.4C316.782 1051.13 329.678 1050.95 342.573 1050.04C342.573 1066.75 342.755 1083.63 342.937 1100.34C342.937 1105.43 350.928 1105.43 350.928 1100.34C350.928 1096.89 350.928 1093.62 350.928 1090.17C376.719 1091.44 402.692 1092.71 428.483 1093.98C428.665 1110.51 428.302 1127.04 426.667 1143.56C426.122 1148.65 434.114 1148.65 434.659 1143.56C438.473 1104.34 435.567 1065.11 433.751 1025.89C444.467 1025.52 455.001 1025.34 465.717 1024.98C465.717 1034.06 466.08 1042.96 466.989 1051.85C467.352 1054.94 470.258 1056.03 472.437 1055.49C492.417 1054.76 512.577 1054.03 532.556 1053.31C533.101 1070.01 534.009 1086.9 535.281 1103.61C535.644 1108.69 543.636 1108.69 543.272 1103.61C542.001 1086.72 541.093 1069.83 540.548 1053.13C563.07 1052.22 585.773 1051.49 608.295 1050.58C608.477 1068.2 608.658 1085.63 608.84 1103.25C608.84 1108.33 616.832 1108.33 616.832 1103.25C616.65 1085.63 616.469 1068.02 616.287 1050.4C638.082 1049.68 660.059 1048.77 681.855 1048.04C682.036 1059.84 682.218 1071.65 682.399 1083.27C682.399 1088.36 690.391 1088.36 690.391 1083.27C690.391 1082.54 690.391 1082 690.391 1081.27C714.184 1079.28 738.159 1077.46 762.134 1078.19C785.383 1078.91 808.449 1081.45 831.698 1081.09C831.516 1086.72 831.153 1092.35 830.426 1098.34C828.973 1108.88 828.61 1118.14 830.608 1128.49C831.516 1133.57 839.144 1131.39 838.236 1126.31C835.694 1112.33 838.781 1099.25 840.053 1085.63C850.224 1086.36 860.395 1086.9 870.566 1087.27C872.019 1088.54 874.562 1088.72 876.015 1087.45C930.14 1089.26 984.265 1086.36 1038.03 1078.73C1040.21 1106.88 1041.3 1135.03 1037.85 1163.17C1037.3 1168.26 1045.11 1168.26 1045.84 1163.17C1051.1 1120.5 1045.66 1077.82 1042.57 1035.15C1079.98 1035.69 1117.4 1032.79 1154.81 1030.43C1155.36 1054.76 1156.09 1079.09 1157.18 1103.25C1157.18 1103.61 1157.18 1104.15 1157.18 1104.52C1158.81 1138.11 1161.17 1171.53 1164.44 1204.94C1164.99 1210.02 1172.98 1210.02 1172.43 1204.94C1169.16 1172.62 1166.8 1140.11 1165.17 1107.6C1193.68 1107.6 1222.2 1107.42 1250.71 1107.06C1250.35 1114.69 1249.62 1122.31 1249.44 1130.12C1248.72 1147.74 1249.08 1165.53 1250.17 1183.15C1250.53 1188.23 1258.34 1188.23 1258.16 1183.15C1256.71 1158.27 1259.98 1132.3 1259.8 1107.06C1293.21 1106.7 1326.63 1106.33 1360.05 1105.61C1359.51 1123.77 1358.96 1141.74 1358.42 1159.9C1358.24 1164.99 1366.23 1164.99 1366.41 1159.9C1367.86 1108.15 1369.5 1056.21 1371.13 1004.28H1447.6C1447.78 1009.18 1447.96 1013.9 1448.33 1018.8C1448.33 1019.35 1448.51 1019.89 1448.69 1020.26C1448.33 1022.44 1449.6 1024.98 1452.5 1024.98C1506.45 1025.89 1560.21 1025.52 1614.15 1024.43C1617.97 1091.44 1606.7 1159 1613.97 1226.19C1614.51 1231.27 1622.51 1231.27 1621.96 1226.19C1612.88 1143.74 1631.41 1060.75 1616.88 978.672C1629.95 979.035 1642.85 979.216 1655.93 979.761C1656.47 979.761 1657.02 979.58 1657.56 979.398C1659.74 979.58 1661.92 978.49 1661.74 975.584C1659.92 950.524 1661.19 925.101 1663.01 899.859L1743.83 902.583C1743.29 921.106 1742.74 939.447 1742.38 957.97C1741.11 960.149 1741.84 963.236 1744.56 963.962C1745.47 964.326 1746.38 964.326 1747.1 964.144C1761.09 964.144 1775.26 964.144 1789.24 964.144C1787.61 1009.72 1785.97 1055.12 1783.97 1100.7C1751.83 1102.7 1719.68 1104.88 1687.71 1107.24C1682.63 1107.6 1682.63 1115.59 1687.71 1115.23C1719.68 1112.87 1751.64 1110.69 1783.61 1108.69C1782.52 1132.3 1781.61 1156.09 1780.52 1179.7C1780.34 1184.78 1788.33 1184.78 1788.51 1179.7C1789.6 1155.91 1790.51 1132.12 1791.6 1108.15C1812.13 1106.88 1834.28 1105.61 1854.81 1104.52C1854.26 1135.39 1853.54 1166.26 1852.81 1197.13C1852.63 1202.22 1860.62 1202.22 1860.8 1197.13C1861.53 1166.08 1862.26 1135.03 1862.8 1104.15C1898.22 1102.16 1919.29 1100.16 1954.89 1098.34C1955.98 1101.43 1961.06 1101.43 1962.33 1097.98C2002.11 1095.98 2042.07 1094.17 2081.84 1092.71C2086.93 1092.53 2086.93 1084.54 2081.84 1084.72C2057.14 1085.63 2032.62 1086.9 2007.92 1087.99C2008.47 1081.27 2009.19 1069.47 2009.74 1062.75C2049.51 1060.39 2102 1057.67 2141.78 1054.4C2146.87 1054.03 2146.87 1046.04 2141.78 1046.41C2102 1049.68 2049.33 1052.22 2009.37 1054.76C2007.92 1052.94 2004.65 1053.13 2003.2 1055.12C1990.3 1055.85 1977.41 1056.58 1964.51 1057.3V989.749C1964.51 975.221 1964.51 964.87 1964.51 964.326C1964.51 964.326 2047.88 964.326 2091.29 964.326C2096.37 964.326 2096.37 956.335 2091.29 956.335C2068.95 956.335 2059.32 956.335 2036.98 956.335C2037.53 916.203 2038.43 876.07 2039.52 835.937C2051.69 836.301 2063.68 836.845 2075.85 837.753C2076.94 838.298 2078.21 838.48 2079.3 837.935C2083.3 838.298 2087.11 838.48 2091.11 838.843C2096.19 839.388 2096.19 831.397 2091.11 830.853C2088.02 830.49 2085.11 830.308 2082.03 830.126C2083.3 789.812 2083.66 749.679 2082.93 709.365C2086.02 709.547 2089.11 709.547 2092.38 709.728C2100.19 710.092 2107.82 710.455 2115.63 710.818C2121.98 711.181 2133.43 709.728 2140.15 711.908C2140.33 711.908 2140.33 712.089 2140.33 712.271C2140.51 712.452 2140.51 712.452 2140.69 712.634C2142.33 713.905 2144.69 714.45 2146.32 712.634C2146.5 712.452 2146.68 712.271 2146.68 712.089C2148.32 710.273 2148.32 707.004 2145.96 705.915C2137.06 701.375 2121.8 703.373 2111.63 702.828C2102 702.283 2092.38 702.101 2082.93 701.738C2082.57 687.211 2082.21 672.683 2081.66 658.155C2106 658.7 2130.52 659.245 2154.86 659.971C2159.94 660.153 2159.94 652.163 2154.86 651.981C2119.26 651.073 2083.84 650.347 2048.24 649.62L2051.51 554.827C2082.21 556.28 2112.9 558.096 2143.6 560.457C2148.68 560.82 2148.68 552.83 2143.6 552.466C2113.08 550.106 2082.39 548.471 2051.88 547.019C2052.42 533.581 2052.78 520.324 2053.33 506.886C2083.84 506.16 2114.35 506.886 2144.87 508.884C2145.78 509.61 2146.87 510.155 2148.32 509.61L2149.95 509.065C2154.31 507.612 2153.41 501.62 2148.86 501.256C2108.72 498.351 2068.4 497.806 2028.26 499.804C2028.45 493.993 2028.63 488.363 2028.81 482.552C2071.49 480.373 2114.17 479.465 2156.86 479.828C2161.94 479.828 2161.94 471.838 2156.86 471.838C2122.71 471.475 2088.56 472.02 2054.42 473.291C2054.42 473.109 2054.42 473.109 2054.42 472.928C2055.14 436.427 2055.87 399.926 2056.6 363.244C2099.46 362.881 2142.33 362.699 2185.19 362.699C2190.28 362.699 2190.28 354.709 2185.19 354.709C2157.76 354.709 2130.52 354.89 2103.09 355.072C2105.27 341.634 2107.82 328.196 2109.45 314.758C2111.81 294.964 2109.27 275.351 2108.18 255.376C2105.82 214.517 2106.36 173.839 2108.91 132.98C2136.15 131.891 2162.49 130.438 2189.19 130.256ZM2043.7 -2.30838C2044.06 3.86588 2044.61 9.85855 2045.15 16.0328C2025.36 16.7592 2005.56 17.8488 1985.76 18.7567C1985.58 13.6721 1985.4 8.58737 1985.04 3.68427C2004.65 2.23151 2024.09 0.233963 2043.52 -2.12677C2043.7 -2.30836 2043.7 -2.30838 2043.7 -2.30838ZM2039.89 -48.2521C2040.98 -35.5404 2042.07 -22.8287 2043.16 -10.117C2023.72 -7.57466 2004.29 -5.75868 1984.85 -4.30592C1984.31 -19.0152 1983.58 -33.7244 1982.86 -48.2521C2001.93 -48.4337 2020.82 -48.2521 2039.89 -48.2521ZM1983.95 365.06C1984.85 365.423 1986.13 365.423 1987.03 365.06C1998.29 364.878 2009.56 364.697 2020.64 364.515C2022.81 424.986 2022.09 485.639 2018.46 546.111C1998.11 545.384 1977.59 544.839 1957.25 544.658C1957.07 544.658 1957.07 544.658 1956.88 544.658C1956.7 534.125 1956.16 523.593 1955.07 512.879C1954.89 509.973 1952.16 508.883 1949.98 509.247C1949.62 509.065 1949.07 508.884 1948.53 508.884C1943.81 508.702 1939.08 508.884 1934.18 508.884C1934.36 461.305 1934.36 413.546 1934.54 365.968C1934.54 365.786 1934.54 365.786 1934.54 365.604C1951.07 365.604 1967.42 365.241 1983.95 365.06ZM1957.07 552.648H1957.25C1986.13 553.011 2015.19 553.738 2044.06 555.009C2042.98 586.606 2041.89 618.386 2040.8 649.983C2011.55 649.257 1982.31 648.531 1953.07 647.986C1955.07 616.207 1957.25 584.427 1957.07 552.648ZM1942.17 752.403L1935.81 752.222C1934.72 751.677 1933.27 751.495 1932 752.04L1920.19 751.495C1920.01 719.535 1920.01 687.392 1920.38 655.431C1928.37 655.613 1936.36 655.613 1944.35 655.794C1942.35 687.937 1940.54 720.261 1942.17 752.403ZM1906.57 832.669C1906.21 833.577 1906.21 834.666 1906.39 835.574C1907.12 876.07 1906.94 916.566 1905.85 957.062H1863.89C1864.25 890.416 1864.25 823.771 1863.53 757.125L1914.02 759.304C1915.29 760.212 1917.11 760.212 1918.38 759.486L1930 760.03C1930.37 783.456 1929.82 806.7 1928 830.126C1922.74 830.308 1917.29 830.308 1912.02 830.49C1909.84 829.582 1907.12 830.308 1906.57 832.669ZM1670.09 592.781H1694.61V592.599C1729.49 592.417 1764.18 592.599 1799.05 591.51C1799.23 591.51 1799.23 591.51 1799.41 591.51C1799.23 609.488 1799.05 627.284 1798.69 645.262C1755.28 644.717 1712.05 644.172 1668.64 643.809C1670.64 628.01 1670.09 608.761 1670.09 592.781ZM1609.07 391.391C1640.85 387.033 1672.82 385.035 1704.97 385.217C1705.15 393.207 1705.15 401.379 1705.15 409.369C1704.06 409.369 1702.79 409.369 1701.7 409.369C1698.43 409.369 1697.16 412.819 1698.25 415.18C1697.16 440.785 1695.88 466.208 1694.79 491.813C1694.61 493.993 1696.07 495.082 1697.7 495.445C1698.25 495.99 1699.15 496.353 1700.24 496.353H1726.22C1730.03 496.353 1742.38 494.719 1747.28 496.172C1747.28 525.409 1742.02 554.101 1743.83 583.338C1730.76 584.064 1710.6 584.427 1694.61 584.427V483.279H1610.16C1611.97 454.586 1612.15 419.175 1609.07 391.391ZM1676.45 146.963C1705.15 146.782 1733.84 146.6 1762.54 146.237C1761.45 179.287 1760.18 212.156 1759.09 245.207C1712.96 243.572 1667.01 241.938 1620.87 240.122C1620.33 209.069 1619.24 178.016 1617.97 147.145C1636.31 147.145 1654.65 146.963 1673.18 146.963C1674.09 147.508 1675.36 147.508 1676.45 146.963ZM1845.73 359.612C1833.56 359.793 1821.39 360.157 1809.22 360.338C1809.22 331.283 1809.22 302.228 1809.22 273.172C1817.21 272.991 1825.02 272.991 1833.01 272.809C1837.74 272.809 1842.64 273.172 1847.54 272.809C1845.55 301.683 1843 330.738 1845.73 359.612ZM1809.22 368.328C1848.45 367.42 1887.5 366.512 1926.73 365.968C1926.73 366.149 1926.73 366.149 1926.73 366.149C1926.73 382.311 1926.73 398.473 1926.55 414.454C1887.32 415.725 1848.09 416.996 1808.86 418.449C1809.04 401.742 1809.22 385.035 1809.22 368.328ZM1892.04 358.704C1879.33 358.885 1866.43 359.067 1853.72 359.43C1850.81 329.467 1853.9 299.322 1855.54 269.177C1855.54 268.996 1855.54 268.814 1855.54 268.632C1855.72 266.09 1853.9 263.366 1850.63 264.092C1844.27 265.727 1835.92 264.637 1829.56 264.637C1822.84 264.819 1816.12 264.819 1809.22 265C1809.22 233.403 1809.04 201.805 1808.68 170.026C1808.68 161.854 1808.49 153.682 1808.31 145.511C1837.37 144.966 1866.25 144.058 1895.31 142.968C1894.04 215.062 1892.95 286.792 1892.04 358.704ZM1808.86 426.439L1926.55 422.444C1926.55 451.318 1926.37 480.191 1926.37 509.065C1924.01 509.065 1921.65 509.065 1919.29 509.065C1916.2 509.247 1915.11 511.971 1915.65 514.15C1914.93 536.486 1914.2 559.004 1913.66 581.34C1898.04 581.159 1882.23 580.795 1866.61 580.069C1864.62 580.069 1863.35 581.159 1862.98 582.793C1862.44 583.338 1862.07 584.246 1862.26 585.335C1863.71 605.674 1864.07 625.831 1862.98 646.17C1844.27 645.807 1825.38 645.443 1806.68 645.262C1807.77 572.442 1808.49 499.44 1808.86 426.439ZM1912.2 751.132L1836.83 748.045C1837.01 741.326 1837.19 734.607 1837.19 727.888C1837.55 703.191 1837.19 678.494 1836.46 653.797C1861.89 654.16 1887.14 654.705 1912.57 655.068C1912.2 687.211 1912.02 719.171 1912.2 751.132ZM1855.9 957.062C1836.83 957.062 1817.57 957.062 1798.5 957.062C1800.14 910.936 1801.41 864.811 1802.68 818.504C1820.48 818.867 1838.28 818.686 1856.08 818.323C1856.08 864.63 1856.08 910.936 1855.9 957.062ZM1754.55 478.739C1751.46 442.419 1750.74 406.282 1752.37 369.781C1768.72 369.418 1784.88 368.873 1801.23 368.51C1801.05 427.529 1800.5 486.729 1799.78 545.747C1783.97 548.29 1768.35 544.476 1752.37 544.295C1754.19 522.503 1756.55 500.893 1754.55 478.739ZM1752.01 552.285C1767.99 552.285 1783.79 555.735 1799.78 553.738C1799.59 563.725 1799.41 583.156 1799.41 583.156C1783.43 582.611 1767.45 583.338 1751.83 583.156C1751.28 572.805 1751.46 562.454 1752.01 552.285ZM1829.02 747.682L1804.32 746.592C1805.04 715.539 1805.77 684.305 1806.31 653.252C1813.76 653.434 1821.03 653.434 1828.29 653.615C1828.84 673.228 1829.2 692.84 1829.2 712.452C1829.2 722.622 1829.02 732.791 1828.84 743.142C1829.02 744.413 1829.02 746.048 1829.02 747.682ZM1829.38 755.672C1829.56 762.21 1829.56 769.11 1828.11 773.469C1819.94 773.469 1811.76 773.832 1803.77 773.65C1803.95 767.294 1804.13 760.938 1804.32 754.401L1829.38 755.672ZM1829.02 781.459C1829.93 781.822 1830.83 781.822 1831.74 781.459C1839.73 781.277 1847.54 781.459 1855.54 781.277C1855.54 791.083 1855.72 800.708 1855.72 810.514C1838.1 811.059 1820.3 811.059 1802.68 810.696C1802.86 801.071 1803.23 791.446 1803.41 781.822C1811.94 781.822 1820.48 781.64 1829.02 781.459ZM1836.1 773.469C1836.28 771.108 1836.28 768.747 1836.28 766.205C1836.46 762.754 1836.46 759.486 1836.65 756.035L1855.54 756.762C1855.54 762.21 1855.54 767.657 1855.72 773.287C1849 773.469 1842.46 773.469 1836.1 773.469ZM1870.79 646.533C1871.88 627.102 1871.7 607.853 1870.25 588.422C1884.6 588.967 1898.94 589.33 1913.47 589.512C1913.11 608.761 1912.75 628.01 1912.38 647.259C1898.58 647.078 1884.78 646.715 1870.79 646.533ZM1800.68 198.173C1789.97 197.81 1779.25 197.81 1768.54 198.173C1769.08 180.74 1769.81 163.488 1770.35 146.055C1780.34 145.874 1790.33 145.874 1800.32 145.692C1800.5 163.307 1800.68 180.74 1800.68 198.173ZM1800.87 206.163C1801.23 257.555 1801.41 308.947 1801.41 360.52C1777.8 361.065 1754.37 361.791 1730.76 362.336C1732.94 325.653 1733.3 288.971 1731.85 252.107C1741.84 252.47 1751.83 252.834 1761.82 253.197C1762.54 253.197 1763.27 253.015 1763.81 252.652C1765.45 252.289 1766.9 251.018 1766.9 249.02C1767.45 234.674 1767.99 220.328 1768.35 206.163C1779.07 205.982 1789.97 205.8 1800.87 206.163ZM1723.49 367.602C1723.85 369.236 1725.13 370.508 1727.12 370.508C1732.94 370.326 1738.57 370.144 1744.38 369.963C1743.83 382.493 1743.65 395.023 1743.65 407.553C1733.48 408.461 1723.31 408.824 1713.14 409.187C1712.96 356.525 1711.32 303.862 1708.42 251.381L1723.67 251.926C1725.13 289.516 1724.76 327.106 1722.4 364.696C1722.4 365.968 1722.95 366.876 1723.49 367.602ZM1743.65 415.543C1743.83 436.608 1744.74 457.674 1746.56 478.557C1746.74 481.644 1746.92 484.731 1747.1 487.818C1742.2 487.274 1736.21 488.363 1732.21 488.363C1722.4 488.363 1712.59 488.363 1702.97 488.363C1704.06 464.574 1705.15 440.967 1706.24 417.178C1718.59 417.178 1731.12 416.633 1743.65 415.543ZM1784.7 653.07C1789.24 653.07 1793.78 653.252 1798.5 653.252C1797.96 684.305 1797.23 715.358 1796.51 746.411C1792.15 746.229 1787.79 746.048 1783.43 745.866C1784.7 730.794 1786.52 715.539 1786.52 700.467C1786.7 684.487 1783.97 668.869 1784.7 653.07ZM1798.14 965.052C1817.39 965.052 1836.65 965.052 1855.9 965.052V1005.18C1836.46 1005.55 1816.12 1005.55 1796.69 1005.18C1797.05 991.746 1797.78 978.49 1798.14 965.052ZM1920.56 647.441C1921.1 604.04 1922.01 560.638 1923.65 517.237C1931.64 517.055 1939.63 516.874 1947.44 517.055C1951.07 560.638 1947.98 604.221 1944.9 647.804C1936.72 647.623 1928.73 647.623 1920.56 647.441ZM1981.59 357.07C1954.34 357.433 1927.28 357.977 1900.03 358.522C1900.58 298.596 1901.49 238.851 1902.58 178.924C1928.91 178.561 1955.25 178.561 1981.59 178.924C1982.49 238.306 1982.49 297.688 1981.59 357.07ZM1981.59 170.934C1955.25 170.571 1929.09 170.571 1902.76 170.934C1902.94 161.491 1903.12 152.23 1903.3 142.787C1912.02 142.423 1920.74 142.242 1929.64 141.697C1931.09 141.697 1932.18 140.789 1932.73 139.881C1934.36 139.518 1935.81 138.428 1935.81 136.249C1935.63 131.528 1935.45 126.806 1935.27 122.085C1950.35 121.903 1965.24 121.54 1980.31 120.995C1980.5 120.995 1980.5 120.995 1980.68 120.814C1981.04 137.52 1981.4 154.227 1981.59 170.934ZM1980.5 113.005C1980.31 113.005 1980.31 113.005 1980.31 113.005C1965.24 113.55 1950.16 113.913 1934.91 114.094C1934 85.9471 1932.91 57.7998 1932 29.4709C1947.44 28.7445 1962.7 27.8365 1978.13 26.9285C1979.22 55.8022 1979.95 84.4944 1980.5 113.005ZM1974.86 -48.4337C1975.95 -25.9158 1976.86 -3.39795 1977.77 19.1199C1962.33 20.0279 1947.08 20.7543 1931.64 21.6622C1930.91 -1.21881 1930 -24.0999 1929.28 -46.9809C1929.28 -47.1625 1929.09 -47.3441 1929.09 -47.5257C1944.53 -48.0705 1959.79 -48.2521 1974.86 -48.4337ZM1886.05 -45.8913C1897.85 -46.6177 1909.66 -47.1625 1921.47 -47.5257C1921.47 -47.3441 1921.47 -47.3441 1921.47 -47.1625C1922.92 -4.85071 1924.37 37.6427 1925.83 79.9545C1912.2 79.5913 1898.76 79.5913 1885.14 79.5913L1886.05 -45.8913ZM1926.19 88.1263C1926.73 103.38 1927.28 118.634 1927.82 134.07C1888.05 135.886 1848.27 137.157 1808.31 137.883C1808.13 121.358 1807.77 105.015 1807.59 88.4895C1847 87.2183 1886.59 87.0367 1926.19 88.1263ZM1758.36 98.6588H1706.6V6.22662H1799.05V98.6588H1779.61L1758.73 70.8747C1772.53 70.3299 1783.61 59.071 1783.61 45.2697C1783.61 31.1052 1772.17 19.4831 1757.82 19.4831H1727.85L1734.21 28.0181H1738.75H1757.82C1767.26 28.0181 1775.07 35.8267 1775.07 45.2697C1775.07 54.7126 1767.45 62.5213 1757.82 62.5213H1752.37H1741.84L1746.01 68.1508L1748.19 71.0563L1769.08 98.8404L1772.71 103.744L1775.44 107.375H1781.43H1800.14C1800.14 120.632 1800.14 131.346 1800.32 138.247C1759.64 138.973 1718.95 139.336 1678.27 139.336C1675.9 98.6588 1675.91 47.6304 1678.08 6.4082H1698.25V107.375H1764.9L1758.36 98.6588ZM1669.91 6.04504C1667.91 47.2672 1667.73 98.2956 1670.09 138.973C1652.47 138.973 1634.86 139.155 1617.24 139.155C1616.33 118.998 1612.7 63.9741 1608.88 6.04504H1669.91ZM1613.24 320.569C1597.08 322.022 1580.91 323.838 1564.75 323.474C1564.93 297.688 1565.29 271.901 1565.48 246.115C1581.28 246.659 1597.08 247.204 1612.7 247.749C1613.24 272.083 1613.61 296.417 1613.24 320.569ZM1603.44 34.7372C1605.61 69.6035 1607.79 104.47 1609.43 139.336C1597.44 139.336 1585.45 139.336 1573.47 139.336C1572.74 104.47 1571.47 69.2403 1570.92 34.1924C1581.64 34.374 1592.54 34.5556 1603.44 34.7372ZM1609.79 147.145C1611.25 178.016 1612.15 208.887 1612.7 239.94C1596.53 239.396 1580.37 238.851 1564.2 238.124C1562.93 237.216 1560.93 237.216 1559.66 237.943C1551.49 237.58 1543.32 237.398 1535.32 237.035L1534.24 147.145C1559.3 147.145 1584.55 147.145 1609.79 147.145ZM1531.15 806.337C1560.39 807.064 1589.63 807.245 1619.06 806.701C1619.24 806.701 1619.24 806.701 1619.42 806.701C1618.69 835.029 1617.78 863.177 1616.51 891.506C1587.09 890.598 1557.85 889.508 1528.42 888.6C1530.24 860.998 1531.15 833.758 1531.15 806.337ZM1618.87 798.71C1581.1 799.255 1543.5 798.892 1505.72 797.621C1507.35 764.752 1507.35 731.883 1505.72 699.014C1521.88 699.014 1537.87 699.196 1554.03 699.196C1556.03 701.92 1561.3 701.193 1561.3 697.017C1561.48 681.581 1561.66 666.327 1561.66 650.891C1581.1 651.073 1600.71 651.255 1620.15 651.436C1620.69 700.649 1620.33 749.68 1619.24 798.892C1619.24 798.71 1619.06 798.71 1618.87 798.71ZM1503.18 147.326C1510.81 147.326 1518.43 147.326 1526.06 147.326C1526.43 177.108 1526.79 207.071 1527.15 236.853C1518.61 236.49 1510.08 236.308 1501.54 235.945C1503.36 206.345 1503.9 176.927 1503.18 147.326ZM1518.98 244.48L1557.48 245.933C1557.3 257.737 1557.3 269.54 1557.12 281.162C1544.59 280.981 1532.06 280.799 1519.52 280.618C1519.89 268.632 1519.52 256.647 1518.98 244.48ZM1511.17 244.299C1511.71 257.555 1512.08 270.812 1511.89 284.068C1511.89 284.794 1512.08 285.339 1512.26 285.702C1512.62 287.155 1513.89 288.608 1515.89 288.608C1529.69 288.789 1543.5 288.971 1557.3 289.153C1556.39 378.135 1555.67 467.117 1554.94 556.098C1527.51 557.551 1500.09 557.914 1472.84 557.37C1474.3 452.407 1472.3 347.445 1471.76 242.664C1480.11 243.027 1488.46 243.209 1496.82 243.572C1497 243.572 1497.36 243.572 1497.55 243.572L1511.17 244.299ZM1554.76 564.27C1554.58 576.256 1554.58 588.241 1554.4 600.045C1526.79 600.045 1499.36 600.771 1471.76 601.86C1472.12 589.694 1472.3 577.527 1472.48 565.36C1499.91 566.086 1527.33 565.723 1554.76 564.27ZM1471.57 609.851C1499.18 608.58 1526.79 607.853 1554.4 607.853C1554.21 619.475 1554.21 631.097 1554.03 642.72C1526.24 642.538 1498.45 642.356 1470.67 642.175C1471.03 631.461 1471.39 620.746 1471.57 609.851ZM1553.85 650.891C1553.67 664.329 1553.67 677.949 1553.49 691.387C1525.15 691.206 1496.82 691.206 1468.49 691.024C1469.21 677.404 1469.76 663.966 1470.12 650.347C1498.27 650.347 1526.06 650.71 1553.85 650.891ZM1484.11 699.014C1488.83 699.014 1493.37 699.014 1498.09 699.014C1499.73 731.702 1499.54 764.57 1498.09 797.258C1493.73 797.076 1489.19 796.894 1484.83 796.713C1485.56 764.207 1485.38 731.702 1484.11 699.014ZM1484.29 804.703C1497.18 805.248 1510.26 805.792 1523.16 805.974C1523.34 833.395 1522.43 860.635 1520.43 887.874C1506.81 887.329 1493.01 886.966 1479.38 886.421C1481.74 859.363 1483.38 832.124 1484.29 804.703ZM1463.94 84.4944C1497.36 85.584 1530.78 86.6735 1564.2 87.7631C1564.75 105.015 1565.11 122.085 1565.48 139.155C1531.87 139.155 1498.27 139.336 1464.49 139.518C1463.76 121.177 1463.58 102.836 1463.94 84.4944ZM1495.19 147.326C1496.09 176.745 1495.55 206.164 1493.55 235.582C1436.52 233.584 1379.49 231.405 1322.46 229.408L1319.91 229.226C1319.91 202.713 1319.55 176.2 1319.19 149.687C1377.85 148.053 1436.52 147.508 1495.19 147.326ZM1443.97 603.132C1441.79 603.132 1439.79 604.403 1439.61 606.945C1439.06 634.729 1438.52 662.332 1437.79 690.116C1437.79 690.298 1437.79 690.479 1437.97 690.842C1417.08 690.842 1396.38 690.661 1375.49 690.661C1374.77 654.342 1373.86 618.023 1372.77 581.522C1388.39 581.703 1403.83 581.159 1419.45 579.706H1419.63C1421.99 580.432 1424.89 579.161 1424.89 576.074C1424.89 519.234 1423.81 462.395 1421.63 405.556C1435.97 405.737 1450.32 405.556 1464.67 404.829C1465.22 470.567 1465.03 536.486 1463.58 602.224C1457.22 602.587 1450.5 602.768 1443.97 603.132ZM1463.58 610.214C1462.86 637.09 1461.95 663.966 1460.68 690.842C1455.77 690.842 1450.69 690.842 1445.78 690.842C1445.78 690.661 1445.96 690.479 1445.96 690.116C1446.51 663.785 1447.05 637.272 1447.6 610.94C1452.87 610.577 1458.31 610.577 1463.58 610.214ZM1415.45 240.848L1463.58 242.664C1463.94 294.056 1464.49 345.629 1464.85 397.021C1450.32 397.747 1435.79 397.929 1421.44 397.747C1419.26 380.314 1420.17 362.699 1417.99 345.447C1418.54 344.903 1418.9 343.995 1418.9 343.087C1417.63 308.947 1416.54 274.807 1415.45 240.848ZM1307.2 449.32C1307.38 455.313 1307.2 461.487 1307.2 467.48C1281.23 466.572 1255.07 466.572 1230.19 470.748C1229.83 457.674 1229.64 444.417 1229.64 431.342C1255.07 431.524 1280.5 431.705 1305.93 432.069C1306.29 432.069 1306.47 431.887 1306.66 431.887C1307.74 437.335 1307.02 444.417 1307.2 449.32ZM1277.59 661.061C1277.59 670.867 1277.41 680.491 1277.41 690.298C1239.27 690.116 1201.31 689.935 1163.17 689.935C1163.17 680.855 1163.35 671.956 1163.35 662.877C1201.49 658.7 1239.45 657.974 1277.59 661.061ZM1277.41 698.288C1277.23 731.157 1276.87 764.026 1276.69 796.894C1276.5 796.894 1276.32 796.894 1276.14 796.894V797.076H1175.16H1162.81C1162.99 756.943 1163.17 714.813 1163.35 697.925C1201.31 697.925 1239.27 698.106 1277.41 698.288ZM1282.68 543.75C1280.68 543.75 1279.41 545.021 1279.05 546.474C1278.87 547.019 1278.68 547.563 1278.68 548.29L1277.78 653.07C1262.52 651.981 1247.08 651.436 1231.82 651.436C1233.64 593.87 1233.46 536.304 1231.46 478.557C1264.34 472.928 1299.57 474.925 1333.9 476.378C1333.9 498.351 1333.17 520.324 1331.9 542.297C1315.55 543.205 1299.03 543.75 1282.68 543.75ZM1285.4 698.288C1296.67 698.288 1307.74 698.288 1319.01 698.469C1318.28 730.43 1317.73 762.573 1317.01 794.534C1313.74 794.534 1310.29 794.352 1307.02 794.352C1302.11 794.17 1291.76 791.991 1284.68 793.444C1284.86 761.665 1285.04 729.885 1285.4 698.288ZM1285.4 690.298C1285.77 644.172 1286.13 597.865 1286.49 551.74C1312.47 551.74 1338.26 550.469 1364.05 547.927C1364.23 556.462 1364.59 564.997 1364.78 573.532C1357.69 573.35 1350.43 572.987 1343.34 572.442C1340.44 572.26 1339.35 574.621 1339.71 576.982C1339.53 577.345 1339.53 577.708 1339.53 578.071C1340.98 615.662 1340.44 653.071 1337.9 690.479C1320.28 690.479 1302.84 690.298 1285.4 690.298ZM1363.5 522.503C1363.69 528.314 1363.87 534.125 1363.87 539.936C1355.88 540.663 1347.88 541.389 1339.89 541.934C1340.26 535.941 1340.44 530.13 1340.62 524.138C1348.25 524.138 1355.88 523.593 1363.5 522.503ZM1340.98 516.147C1341.53 503.072 1341.71 489.816 1341.89 476.741C1348.79 477.104 1355.69 477.286 1362.41 477.467C1362.6 489.816 1362.96 502.346 1363.32 514.695C1363.32 514.695 1363.32 514.695 1363.14 514.695C1355.69 515.784 1348.43 516.329 1340.98 516.147ZM1326.82 698.469C1340.44 698.469 1354.06 698.651 1367.68 698.651C1368.05 723.348 1368.23 748.227 1368.41 772.924C1354.06 774.013 1339.71 773.832 1325.36 772.742C1325.91 747.863 1326.45 723.166 1326.82 698.469ZM1345.71 690.479C1348.07 653.797 1348.61 617.296 1347.34 580.614C1353.15 580.977 1359.15 581.34 1364.96 581.522C1365.87 617.841 1366.96 654.342 1367.68 690.661L1345.71 690.479ZM1319.91 268.814C1320.1 268.814 1320.28 268.996 1320.46 268.996C1333.17 268.814 1345.71 268.814 1358.42 268.632C1358.6 276.078 1358.78 283.705 1359.15 291.15C1346.07 291.877 1332.99 292.603 1320.1 293.329C1319.91 285.158 1319.91 276.986 1319.91 268.814ZM1319.91 261.005C1319.91 253.015 1319.91 245.207 1319.91 237.216C1320.82 237.216 1321.73 237.216 1322.46 237.398C1334.26 237.761 1346.07 238.306 1357.87 238.669C1357.87 245.933 1358.06 253.197 1358.24 260.461C1345.71 260.642 1332.99 260.642 1320.46 260.824C1320.1 260.824 1320.1 261.005 1319.91 261.005ZM1398.38 71.0563C1398.01 94.119 1397.29 117.182 1396.2 140.244C1370.41 140.607 1344.8 141.152 1319.01 141.879C1318.64 119.179 1318.28 96.4797 1317.73 73.7802C1344.8 73.7802 1371.68 72.8723 1398.38 71.0563ZM1311.92 294.419C1311.92 295.145 1312.1 295.69 1312.29 296.235C1311.38 298.596 1312.65 301.683 1315.92 301.501L1359.33 298.959C1361.51 355.798 1364.96 412.456 1362.05 469.296C1346.79 469.114 1330.99 468.206 1315.19 467.661C1315.37 457.855 1315.37 448.049 1314.83 438.243C1314.65 433.703 1315.92 424.805 1309.92 423.534C1308.65 423.17 1307.56 423.534 1306.66 424.26C1306.47 424.26 1306.11 424.078 1305.93 424.078C1294.67 423.897 1283.41 423.897 1272.15 423.715C1272.33 361.065 1273.05 298.414 1274.33 235.582L1311.74 236.853C1311.92 256.102 1312.1 275.351 1311.92 294.419ZM1311.2 150.05C1311.56 176.382 1311.74 202.713 1311.92 229.045C1280.14 227.955 1248.35 226.684 1216.57 225.594C1216.02 201.805 1215.3 177.835 1214.75 154.046C1246.9 152.23 1279.05 150.958 1311.2 150.05ZM1243.81 35.8267C1245.26 72.1458 1245.63 108.283 1244.54 144.603C1234.55 145.147 1224.56 145.51 1214.75 146.055C1213.84 109.736 1213.3 73.2354 1212.93 36.9163C1223.11 36.5531 1233.46 36.1899 1243.81 35.8267ZM1169.53 192.544C1169.71 187.641 1171.89 180.377 1170.98 174.747C1183.15 175.292 1195.14 174.929 1207.3 173.476C1207.67 190.728 1208.21 208.161 1208.58 225.413L1169.71 223.96C1169.16 213.427 1168.98 203.076 1169.53 192.544ZM1125.57 261.913C1125.57 251.381 1125.57 240.848 1125.57 230.316L1266.52 235.4C1265.24 298.232 1264.34 360.883 1264.34 423.715C1252.71 423.534 1241.27 423.534 1229.64 423.352C1229.83 399.018 1230.37 374.684 1231.64 350.169C1231.82 346.174 1226.92 345.266 1224.74 347.808C1191.68 349.443 1158.45 350.169 1125.39 349.806C1125.39 320.569 1125.57 291.15 1125.57 261.913ZM1125.21 357.796C1157.9 358.159 1190.59 357.433 1223.29 355.798C1222.2 378.316 1221.65 400.834 1221.47 423.17C1189.32 422.989 1157.18 422.807 1124.85 422.807C1125.21 401.197 1125.21 379.406 1125.21 357.796ZM1125.03 430.979C1157.18 430.979 1189.32 431.161 1221.65 431.342C1221.65 445.507 1221.83 459.671 1222.2 473.836C1222.2 475.107 1222.74 476.015 1223.47 476.741C1225.65 535.033 1225.83 593.326 1224.01 651.436C1203.85 651.618 1183.69 652.707 1163.53 654.886C1163.71 620.928 1163.9 587.151 1164.08 553.193C1164.26 552.466 1164.26 551.74 1164.08 551.014C1164.08 547.2 1159.54 546.111 1157.36 548.29C1146.28 548.29 1135.38 548.471 1124.3 548.471C1124.48 509.247 1124.85 470.022 1125.03 430.979ZM1080.16 431.161C1092.52 431.161 1104.87 430.979 1117.04 430.979C1116.67 492.721 1116.31 554.282 1115.76 616.025C1115.76 617.296 1116.13 618.204 1116.85 618.749C1117.04 618.931 1117.22 618.93 1117.4 619.112C1117.94 619.657 1118.85 620.02 1119.76 619.838C1126.84 619.657 1133.93 619.475 1141.01 619.294C1140.65 632.55 1140.28 645.807 1139.92 659.245C1138.65 659.245 1137.56 659.063 1137.2 659.063C1131.38 659.063 1125.39 659.063 1119.58 659.063C1108.5 659.063 1094.88 660.879 1083.98 657.974C1085.8 582.611 1089.97 505.615 1080.16 431.161ZM1117.22 930.73C1117.4 912.389 1120.67 894.593 1119.03 876.252C1130.84 876.07 1142.65 875.888 1154.45 875.525C1154.45 877.523 1154.45 879.52 1154.45 881.518C1154.45 909.302 1154.45 937.086 1154.45 964.87C1142.65 964.87 1130.84 964.87 1119.03 965.052C1121.76 954.883 1117.22 940.173 1117.22 930.73ZM1154.45 867.717C1125.94 868.443 1097.42 868.806 1068.72 868.988C1064.36 845.562 1058.55 821.955 1058.73 797.984C1090.7 797.258 1122.67 796.35 1154.63 795.26C1154.63 819.231 1154.63 843.564 1154.45 867.717ZM1054.74 789.994C1052.19 789.994 1050.92 792.173 1050.92 794.17C1050.92 794.17 1050.92 794.17 1050.92 794.352C1050.01 819.412 1056.01 844.291 1060.73 868.988C1050.38 868.988 1040.03 869.169 1029.49 869.169C1029.13 811.967 1029.31 754.583 1030.4 697.38L1078.89 697.561C1079.26 697.561 1079.44 697.561 1079.8 697.561L1155.18 697.925C1155 727.706 1155 757.488 1154.81 787.27C1121.39 788.178 1088.16 789.267 1054.74 789.994ZM1021.68 869.169C976.818 869.169 931.956 868.625 887.094 867.717C887.639 818.867 886.913 769.837 889.819 721.169C890.364 712.997 890.908 704.825 891.453 696.835L1022.41 697.38C1021.5 754.583 1021.14 811.785 1021.68 869.169ZM866.57 777.645C866.207 771.289 864.936 764.933 867.115 758.759C871.474 758.759 875.833 758.759 880.192 758.759C880.011 766.386 879.829 773.832 879.648 781.459C875.47 781.277 870.929 780.914 866.389 780.732C866.752 779.643 866.752 778.553 866.57 777.645ZM842.051 750.587C841.324 750.587 840.779 750.769 840.234 750.951C833.514 751.132 826.794 751.495 820.073 751.677C821.163 733.336 822.071 714.995 822.616 696.653L883.28 696.835C882.735 705.007 882.372 712.997 881.827 721.169C881.282 730.975 880.919 740.963 880.556 750.769C867.66 750.951 854.946 750.951 842.051 750.587ZM814.625 694.293C814.08 713.36 813.172 732.609 812.082 751.677C774.122 752.767 736.161 753.311 698.201 752.948V671.775C698.383 671.775 698.564 671.775 698.746 671.593C717.817 672.138 737.07 673.409 756.322 673.954C757.412 674.499 758.683 674.499 759.773 674.136C778.299 674.68 796.825 674.499 815.351 672.501C815.17 678.494 814.988 684.487 814.806 690.479C814.08 691.569 814.08 693.203 814.625 694.293ZM662.239 818.867C662.42 809.969 662.602 800.889 662.602 791.991C672.228 791.81 681.673 791.628 691.299 791.446C691.481 806.519 691.481 821.41 691.118 836.482C681.491 836.845 671.865 837.027 662.057 837.209C662.965 831.216 662.239 824.678 662.239 818.867ZM690.573 783.456C680.038 783.638 669.686 783.819 659.151 784.183C657.335 784.183 656.245 785.272 655.7 786.543C655.155 787.088 654.792 787.996 654.792 788.904C654.61 797.621 654.61 806.156 654.429 814.872C654.247 821.41 655.337 830.308 653.884 837.209C628.638 837.39 603.573 837.209 578.327 837.027C576.51 792.536 581.959 747.5 579.053 703.191C579.416 703.191 578.871 697.925 578.69 695.201C577.6 687.392 577.963 679.583 578.508 671.775C581.051 671.775 583.775 671.593 586.318 671.593C586.5 671.412 586.681 671.412 586.863 671.412H588.679V773.287H655.337L648.98 764.752H597.216V672.32H689.665V764.752H670.23L649.343 736.968C663.147 736.423 674.226 725.164 674.226 711.363C674.226 697.198 662.784 685.576 648.435 685.576H618.466L624.823 694.111H629.364H648.435C657.88 694.111 665.69 701.92 665.69 711.363C665.69 720.806 658.061 728.614 648.435 728.614H642.986H632.452L636.629 734.244L638.809 737.149L659.696 764.934L663.329 769.837L666.053 773.469H672.047H690.028C690.209 776.737 690.391 780.188 690.573 783.456ZM378.172 865.719C377.446 866.446 376.901 867.353 376.901 868.625C377.264 880.61 377.264 892.595 377.264 904.581C363.642 904.944 350.202 905.125 336.58 905.852C336.035 905.852 335.672 906.033 335.127 906.215C333.129 906.215 331.131 907.486 331.131 910.028C331.312 914.205 331.312 918.382 331.494 922.559C290.628 922.377 249.943 927.462 209.258 926.372C208.895 926.19 208.532 926.009 207.987 925.827C208.714 926.372 208.713 918.745 208.713 918.927C208.713 916.203 208.713 913.297 208.713 910.573V895.864C224.697 895.319 240.68 894.593 256.663 893.503C258.48 893.322 259.569 892.232 260.114 890.961C260.841 890.234 261.386 889.327 261.386 888.055C260.659 855.731 260.841 823.407 261.386 791.083C266.834 790.72 272.465 790.538 277.914 790.175C278.822 790.175 279.548 789.812 280.093 789.449C327.861 790.72 374.722 789.449 421.945 786.906C422.308 793.807 422.49 800.526 422.853 807.427C423.035 810.877 426.667 811.967 428.847 810.696C441.197 809.969 453.367 809.424 465.717 809.061C465.354 826.858 463.901 844.654 463.538 862.269C463.538 863.54 463.538 864.811 463.538 866.082C436.112 865.538 408.504 864.993 381.079 864.448C379.807 864.448 378.717 864.993 378.172 865.719ZM379.989 997.739L341.847 998.102C341.12 969.955 340.212 941.808 339.486 913.842C352.381 913.297 365.459 913.115 378.354 912.752C378.536 941.081 379.262 969.41 379.989 997.739ZM303.342 714.268C298.983 714.45 294.624 714.087 290.083 713.724C290.264 699.559 290.083 685.395 289.538 671.23C289.538 671.048 289.538 671.048 289.538 670.867C316.419 671.23 343.3 671.775 370.181 672.32C370.181 693.748 370.181 714.995 370.181 736.423C348.93 737.331 327.861 737.149 306.793 736.786C306.974 730.612 307.156 724.256 307.338 718.082C307.519 716.084 305.521 714.268 303.342 714.268ZM130.613 561.909C105.367 561.183 80.1208 561.546 54.8745 562.999C54.3296 554.282 53.7847 545.566 53.4215 537.031C54.148 536.305 54.6929 535.396 54.6929 534.125C55.0562 523.956 55.2378 513.968 55.0561 503.799C55.7827 503.072 56.1459 502.164 56.1459 501.075C55.9643 467.48 55.9643 433.703 55.9643 400.108C82.1187 399.381 108.273 397.929 134.428 395.749C134.064 429.163 133.156 462.577 130.977 495.99C130.25 496.717 129.705 497.625 129.705 498.896C129.524 519.961 129.705 541.026 130.613 561.909ZM106.457 261.369C110.271 261.732 144.599 259.553 158.039 259.189C158.221 265.909 159.311 277.531 159.856 285.702H134.428H107.183C106.82 278.075 106.639 267.361 106.457 261.369ZM166.213 125.172C181.833 124.809 197.453 124.445 213.254 123.901C211.801 174.747 207.624 234.492 212.891 285.521H168.029C164.578 234.129 165.849 176.382 166.213 125.172ZM218.521 269.177C246.311 269.359 273.918 269.177 301.707 268.451C301.707 269.54 301.707 275.896 301.707 285.521H244.131H220.883C219.974 280.255 218.703 272.628 218.521 269.177ZM396.699 444.235C400.694 444.054 404.509 444.054 408.504 443.872C407.778 464.574 405.962 485.458 406.506 505.978C373.995 505.07 341.665 506.16 309.335 509.247C310.97 498.169 309.154 486.91 308.246 475.651C335.853 473.654 363.642 472.383 391.431 472.02C392.158 472.02 392.884 471.838 393.429 471.475C395.245 471.293 397.062 470.022 396.88 467.661C396.88 460.034 396.699 452.044 396.699 444.235ZM396.88 436.245C396.88 431.342 397.062 426.439 397.243 421.536C401.239 421.354 405.053 421.354 409.049 421.173C409.049 425.894 409.049 430.616 409.049 435.337C409.049 435.519 409.049 435.7 409.049 435.882C404.872 436.064 400.876 436.245 396.88 436.245ZM407.596 513.968C405.417 536.849 405.417 559.73 405.235 582.611C404.145 582.611 402.511 582.793 402.147 582.793C399.786 582.975 397.425 583.156 395.064 583.338C390.342 583.883 385.619 584.246 381.079 584.791C380.17 584.972 379.444 585.335 378.717 585.88C357.285 587.878 335.853 584.064 314.239 584.427C294.079 584.79 274.1 585.335 253.939 584.246C254.484 558.096 255.21 531.946 255.755 505.796C270.467 506.341 287.177 508.339 301.525 505.615C301.344 508.157 300.799 510.518 300.254 513.06C299.164 516.874 303.523 519.053 306.248 517.419C306.429 517.419 306.429 517.419 306.611 517.419C340.394 514.331 373.995 513.06 407.596 513.968ZM336.943 663.966C332.221 663.785 327.498 663.785 322.776 663.785C322.594 651.981 322.594 640.359 322.413 628.555C341.12 628.01 359.828 627.465 378.354 627.102C378.354 631.279 378.536 635.456 378.354 639.632C365.822 641.448 353.108 640.722 340.575 640.54C338.941 640.54 337.851 641.448 337.306 642.538C336.398 643.083 335.853 644.172 336.035 645.625C336.398 651.618 336.58 657.792 336.943 663.966ZM279.185 622.018C279.185 621.836 279.185 621.654 279.185 621.473C277.369 616.933 278.64 610.032 278.64 605.311C278.64 601.134 278.64 596.957 278.822 592.781C293.352 592.781 307.701 592.236 322.413 592.418C340.939 592.599 358.92 595.323 377.446 594.052C377.991 602.405 378.354 610.759 378.536 618.93C345.298 619.657 312.241 620.746 279.185 622.018ZM134.428 294.056V387.759C108.273 389.938 82.3004 391.209 56.1459 392.117C56.1459 380.495 56.1459 342.179 56.1459 294.237H134.428V294.056ZM201.085 395.023L194.728 386.488H142.964V294.056H235.413V386.488H215.979L195.091 358.704C208.895 358.159 219.974 346.9 219.974 333.099C219.974 318.934 208.532 307.312 194.183 307.312H164.215L170.572 315.847H175.112H194.183C203.628 315.847 211.438 323.656 211.438 333.099C211.438 342.542 203.81 350.35 194.183 350.35H188.734H178.2L182.377 355.98L184.557 358.885L205.444 386.67L209.077 391.573L211.801 395.205H217.795H243.949V294.237H301.525C301.344 327.288 300.799 386.125 299.527 432.25L141.693 436.245C142.056 422.626 142.419 408.824 142.419 395.205H201.085V395.023ZM299.346 440.604C298.983 452.407 298.619 463.121 298.256 472.02C273.373 472.564 248.49 473.109 223.607 473.654C222.154 473.654 221.064 474.38 220.519 475.288C219.611 475.833 218.885 476.923 218.885 478.375C218.521 484.005 218.521 489.634 218.885 495.264C192.367 494.356 165.668 494.174 139.15 494.537C140.24 477.831 140.966 461.305 141.511 444.599L299.346 440.604ZM137.697 502.709C165.304 502.346 193.093 502.528 220.701 503.436C220.883 503.436 221.064 503.436 221.427 503.254C223.789 504.344 227.24 503.254 227.058 499.985C226.695 493.811 226.695 487.818 226.876 481.644C251.578 481.099 276.097 480.555 300.799 480.01C301.344 486.002 302.07 491.814 302.252 497.625C302.07 497.625 301.707 497.625 301.525 497.625C293.715 499.259 284.816 498.169 276.824 497.988L252.667 497.625C251.578 497.625 250.851 497.988 250.125 498.533C249.035 499.077 248.308 500.167 248.127 501.801C247.4 530.312 246.855 559.004 246.129 587.514C246.129 590.238 248.308 591.51 250.488 591.328C251.033 591.691 251.759 592.054 252.667 592.054C258.843 592.418 264.837 592.599 271.012 592.599L270.83 607.672C270.83 612.211 270.104 617.659 271.194 622.199C234.686 623.652 198.179 625.468 161.672 627.284C161.49 627.284 161.309 627.284 161.309 627.102C160.764 626.557 159.856 626.013 158.947 626.013C153.499 625.468 148.05 624.923 142.419 624.56C138.968 584.064 137.334 543.387 137.697 502.709ZM162.943 635.274C213.436 632.913 263.928 630.371 314.421 628.737C314.603 640.359 314.603 651.981 314.784 663.603C273.736 662.877 232.688 662.332 191.822 662.513C190.914 662.513 190.006 662.877 189.461 663.421C188.008 663.785 186.736 665.056 186.555 667.053C186.373 670.867 186.192 674.68 186.192 678.494C178.382 678.857 170.572 679.22 162.58 679.584C161.853 664.693 162.035 649.983 162.943 635.274ZM194.002 682.671C194.002 682.307 194.002 681.944 194.002 681.581C194.183 677.949 194.183 674.136 194.365 670.504C223.425 670.504 252.667 670.685 281.728 671.048C281.728 671.23 281.728 671.23 281.728 671.412C282.454 685.576 282.636 699.922 282.273 714.087C280.093 715.903 281.001 720.806 284.997 721.351C289.72 721.895 294.624 722.259 299.346 722.259C299.164 727.162 299.164 732.065 298.983 736.968C285.905 736.605 272.828 736.423 259.569 736.241C237.956 736.06 216.523 737.876 195.091 739.328C193.82 720.261 193.457 701.557 194.002 682.671ZM344.935 664.148C344.753 658.882 344.39 653.797 344.208 648.531C356.014 648.712 367.82 649.075 379.444 647.441C381.442 649.802 386.527 649.075 386.527 644.899C386.709 627.647 386.346 610.396 385.256 593.326C385.619 593.326 385.801 593.326 386.164 593.144C387.072 592.962 387.617 592.599 388.162 592.236C392.158 591.873 396.335 591.328 400.331 590.965C401.966 590.783 404.509 590.965 406.688 590.783C406.143 615.662 406.325 640.54 406.688 665.419C386.164 664.874 365.458 664.511 344.935 664.148ZM406.87 673.409C407.051 681.036 407.051 688.482 407.233 696.109C397.607 696.109 387.799 696.29 378.172 696.29V672.683C387.799 673.046 397.243 673.228 406.87 673.409ZM429.755 786.543C441.561 785.817 453.366 785.091 465.172 784.364C465.536 789.994 465.717 795.623 465.717 801.253C453.911 801.616 442.287 802.161 430.481 802.887C430.3 797.257 430.118 791.991 429.755 786.543ZM463.538 874.073C463.538 883.879 463.719 893.685 464.083 903.491C437.746 903.309 411.592 903.673 385.256 904.399C385.256 893.685 385.074 883.152 384.893 872.438C411.229 872.983 437.383 873.528 463.538 874.073ZM464.627 911.481C465.172 922.559 465.899 933.454 466.807 944.532C440.108 945.44 413.408 945.984 386.891 944.895C386.709 933.999 386.527 923.285 386.346 912.389C412.319 911.844 438.473 911.481 464.627 911.481ZM378.172 780.914V704.281C409.957 704.099 441.924 703.917 473.709 703.736C472.982 728.07 473.709 752.222 477.886 775.466C444.467 777.827 411.41 779.824 378.172 780.914ZM415.77 507.612C415.77 507.068 415.77 506.341 415.77 505.796C436.475 503.799 457.181 503.98 478.068 504.707C478.794 516.874 478.068 528.677 476.797 541.026C475.343 553.738 479.884 568.084 477.523 580.251C456.091 581.34 434.659 581.885 413.408 581.522C413.59 558.641 413.408 535.941 415.77 513.242C417.041 511.789 417.041 509.247 415.77 507.612ZM486.06 504.888C491.69 505.07 497.32 505.252 503.133 505.433C502.769 520.142 502.769 534.67 502.588 549.379C496.412 549.379 490.237 549.379 484.062 549.198C484.062 548.108 484.062 547.2 484.062 546.111C484.97 532.309 486.786 519.053 486.06 504.888ZM484.97 583.156C486.968 574.621 485.333 566.086 484.425 557.37C490.419 557.37 496.412 557.37 502.406 557.551C502.224 580.614 502.224 603.858 502.406 626.921C495.686 627.102 488.966 627.284 482.245 627.466C481.337 627.466 480.611 627.829 480.066 628.373C478.431 628.737 476.797 629.826 476.797 632.005C476.252 652.889 474.98 674.317 474.072 695.745C454.456 695.927 434.84 695.927 415.225 696.109C414.135 660.516 413.953 624.923 414.68 589.512C436.112 589.694 457.544 589.33 478.976 588.241C480.611 588.786 482.427 588.604 483.698 587.151C484.788 586.062 485.333 584.427 484.97 583.156ZM473.709 801.071C473.709 795.26 473.527 789.63 473.164 783.819C475.707 783.638 478.068 783.456 480.611 783.275C483.154 784.364 487.149 782.367 486.423 778.553C481.519 754.401 480.974 728.978 481.7 703.554C504.222 703.373 526.926 703.373 549.448 703.191C550.537 736.06 550.901 769.11 550.719 801.979C525.11 800.889 499.5 800.526 473.709 801.071ZM524.746 836.845C507.31 837.027 489.874 837.209 472.437 837.935C472.982 828.31 473.527 818.686 473.709 808.88C490.419 808.516 506.947 808.516 523.657 808.88C524.02 818.323 524.383 827.584 524.746 836.845ZM570.153 811.24C570.153 819.775 570.153 828.492 570.517 837.027C557.984 836.845 545.27 836.845 532.738 836.845C532.375 827.766 532.011 818.504 531.648 809.424C544.362 809.788 557.258 810.332 570.153 811.24ZM570.153 803.25C566.339 803.069 562.525 802.887 558.711 802.524C558.892 769.473 558.529 736.241 557.439 703.191C561.98 703.191 566.521 703.191 571.061 703.191C573.423 736.241 570.88 769.837 570.153 803.25ZM570.88 667.598C570.153 676.86 569.79 685.939 570.88 695.201C541.274 695.382 511.669 695.564 482.064 695.745C482.79 675.407 484.243 655.068 484.788 635.274C519.297 634.003 553.625 633.458 588.135 633.277C587.953 643.446 587.953 653.434 587.771 663.603C583.775 663.785 579.78 663.785 575.784 663.966C573.423 663.603 571.061 664.874 570.88 667.598ZM595.763 663.421C595.581 663.421 595.581 663.421 595.763 663.421C595.945 628.192 596.489 592.962 596.853 557.733C630.272 557.733 663.692 557.733 697.111 557.37C696.022 592.781 694.569 628.01 693.297 663.421C693.116 663.421 692.934 663.421 692.934 663.421C692.934 663.603 692.934 663.603 692.934 663.785H595.763C595.763 663.785 595.763 663.603 595.763 663.421ZM641.17 342.542C641.17 359.43 640.807 376.319 639.172 393.025C622.462 393.025 605.752 393.025 589.224 393.025C589.406 376.863 589.769 360.52 590.132 344.358C607.024 343.813 624.097 343.087 641.17 342.542ZM590.314 336.368C590.496 331.828 590.496 327.106 590.677 322.566C607.387 322.022 624.097 321.658 640.807 321.114C640.988 321.114 641.17 320.932 641.533 320.932C641.533 325.472 641.533 330.012 641.533 334.552C624.279 335.278 607.205 335.823 590.314 336.368ZM642.623 500.893C639.898 466.39 642.26 435.337 646.255 401.016C664.055 400.834 681.855 400.834 699.836 400.471C700.017 450.228 698.928 499.804 697.293 549.379C663.873 549.561 630.272 549.743 596.853 549.743C597.034 535.215 597.216 520.687 597.398 506.16C610.293 505.978 623.37 505.615 636.266 505.433C637.356 505.433 638.082 505.07 638.627 504.525C640.807 504.888 642.986 503.617 642.623 500.893ZM650.251 251.381C660.786 251.744 671.32 251.926 681.673 252.289C682.399 299.14 682.218 345.992 680.946 392.844C669.686 393.025 658.425 393.025 647.164 393.207C649.888 364.515 648.798 335.278 649.343 306.586L650.251 251.381ZM833.151 450.41C791.376 452.044 749.42 453.134 707.464 453.497C707.646 435.519 707.827 417.359 707.827 399.381C709.825 397.202 709.099 392.481 705.103 392.662C699.654 392.662 694.387 392.662 688.938 392.844C689.12 387.941 689.12 383.038 689.12 378.135C737.07 377.408 785.019 376.5 832.787 375.774C832.787 400.652 832.787 425.531 833.151 450.41ZM836.42 566.631C812.082 567.902 787.744 568.628 763.406 568.628C763.042 532.673 762.316 496.535 761.226 460.579C785.201 460.034 809.357 459.308 833.332 458.4C833.696 494.537 834.785 530.675 836.42 566.631ZM836.057 247.386C830.063 247.386 824.069 247.204 818.257 247.023C816.804 221.599 815.533 196.357 814.08 170.934C821.345 170.571 828.61 170.389 835.875 170.026C836.783 195.994 836.602 221.599 836.057 247.386ZM722.539 557.37C723.629 557.37 724.356 557.006 725.082 556.462C726.535 555.917 727.625 554.827 727.806 552.83C728.896 522.503 731.439 491.632 729.259 461.305C737.251 461.124 745.243 460.942 753.234 460.942C755.051 529.404 756.685 597.684 754.506 666.145C736.706 665.601 719.088 664.511 701.289 663.966C702.742 628.555 704.013 593.144 705.103 557.733C710.915 557.37 716.727 557.37 722.539 557.37ZM705.285 549.561C706.193 520.324 706.919 490.906 707.283 461.487C711.823 461.487 716.546 461.305 721.086 461.305C723.266 490.542 720.905 520.142 719.815 549.379C715.093 549.379 710.189 549.561 705.285 549.561ZM588.861 549.924C562.707 549.924 536.552 549.743 510.398 549.561C510.579 535.033 510.579 520.506 510.943 505.978C514.575 506.16 518.026 506.341 521.659 506.341C544.181 506.886 566.702 506.886 589.406 506.523C589.224 520.869 589.043 535.396 588.861 549.924ZM588.861 557.733C588.679 570.263 588.498 582.793 588.498 595.323C587.953 594.96 587.045 594.597 586.137 594.778C567.974 597.139 549.629 597.502 531.285 596.231C527.107 595.868 526.381 600.953 528.924 603.132C528.197 610.759 528.379 618.386 529.287 626.013C523.112 626.194 516.755 626.376 510.579 626.557C510.398 603.495 510.398 580.432 510.579 557.37C536.552 557.733 562.707 557.733 588.861 557.733ZM588.316 601.497C588.135 609.488 588.135 617.478 587.953 625.286C571.061 625.286 553.988 625.468 537.097 625.831C536.189 618.749 536.189 611.485 536.734 604.403C553.262 605.311 569.608 604.766 585.955 602.587C587.045 602.587 587.771 602.224 588.316 601.497ZM787.562 666.327C788.107 660.334 788.833 654.16 788.833 647.986C789.015 640.722 787.199 633.458 787.562 626.194C796.825 625.65 806.27 624.923 815.533 624.378C815.714 637.816 815.533 651.073 815.351 664.511C806.27 665.601 796.825 666.145 787.562 666.327ZM786.472 618.567C784.293 617.115 781.023 617.296 780.479 620.565C780.297 621.291 780.297 622.018 780.297 622.744C780.297 622.926 780.297 622.926 780.297 623.107C779.389 630.371 780.842 637.272 781.205 644.717C781.568 651.981 780.66 659.426 779.934 666.69C774.122 666.69 768.491 666.69 762.679 666.509C763.587 636.727 763.769 606.764 763.587 576.982C803.364 576.8 842.959 574.984 882.554 571.897C881.645 585.698 881.827 599.5 882.554 613.119C882.009 612.756 881.282 612.393 880.192 612.393C848.771 614.391 817.531 616.388 786.472 618.567ZM952.48 256.284C973.549 256.284 994.437 256.466 1015.51 256.466C1015.69 256.466 1016.05 256.284 1016.23 256.284C1018.41 256.647 1020.77 255.376 1020.95 252.47C1021.14 243.391 1020.95 234.492 1020.95 225.413C1022.41 225.413 1023.86 225.594 1025.31 225.594C1025.31 263.911 1024.22 302.228 1022.77 340.363C1013.51 340.726 1004.24 341.089 994.981 341.634C992.983 341.815 991.712 343.087 991.349 344.539C990.441 345.084 989.714 346.174 989.714 347.808C990.622 365.786 990.441 383.764 989.169 401.56H951.572C950.301 353.438 950.664 305.133 952.662 257.01C952.662 256.829 952.48 256.647 952.48 256.284ZM1017.5 113.731C1018.77 113.731 1019.86 113.731 1021.14 113.731C1023.86 148.234 1024.95 182.919 1025.13 217.604C1023.68 217.604 1022.41 217.422 1020.95 217.422C1020.59 182.919 1019.5 148.416 1017.5 113.731ZM1072.17 431.161C1082.71 510.518 1077.26 592.781 1075.81 672.864C1052.56 672.138 1029.13 670.867 1005.88 668.869C1004.79 668.688 1003.88 669.051 1003.34 669.596C1005.15 590.238 1004.43 510.699 1000.79 431.342C1024.59 431.342 1048.38 431.342 1072.17 431.161ZM1027.67 423.352C1028.58 398.292 1029.49 373.232 1030.4 348.171C1059.28 346.9 1088.34 345.992 1117.4 345.992C1117.4 371.597 1117.22 397.384 1117.22 422.989C1087.25 422.989 1057.46 423.17 1027.67 423.352ZM892.18 646.715C890.727 621.473 888.366 596.413 890.182 570.989C894.178 570.626 897.992 570.444 901.988 570.081C903.986 572.26 908.89 571.534 909.071 567.539L910.343 529.767C910.524 529.767 910.888 529.949 911.069 529.949C939.222 529.949 967.556 528.859 995.708 527.043C996.616 581.159 996.616 635.274 994.981 689.39L891.817 689.027C892.725 674.862 893.088 660.879 892.18 646.715ZM952.117 424.078C951.935 419.175 951.935 414.454 951.754 409.551H1020.23C1020.05 414.091 1019.86 418.63 1019.68 423.352C997.161 423.534 974.639 423.897 952.117 424.078ZM997.706 349.624C1005.88 349.079 1014.23 348.898 1022.41 348.534C1021.68 366.331 1021.14 383.946 1020.41 401.742H996.979C998.251 384.309 998.432 367.057 997.706 349.624ZM992.802 431.705C994.073 460.761 994.981 489.816 995.526 518.871C967.374 520.687 939.222 521.777 911.069 521.777C910.888 521.777 910.706 521.777 910.524 521.958C911.251 499.44 911.977 476.923 912.704 454.405C914.883 454.223 916.881 454.223 919.061 454.042C921.24 456.039 925.781 454.95 925.781 451.136V432.25C948.121 432.069 970.462 431.887 992.802 431.705ZM917.789 446.233C892.18 447.867 866.752 449.138 841.142 450.228C841.142 444.78 841.142 439.151 840.961 433.703C866.57 433.158 892.18 432.977 917.789 432.613V446.233ZM822.98 688.482C823.524 667.053 823.888 645.443 823.706 623.834C842.414 622.562 861.303 621.291 880.011 620.02C881.101 620.02 882.009 619.475 882.554 618.749C882.917 626.739 883.462 634.548 884.007 642.538C884.915 657.974 884.552 673.228 883.825 688.482H822.98ZM844.412 566.268C842.777 530.312 841.869 494.174 841.324 458.218C862.575 457.31 883.643 456.221 904.894 454.95C903.804 490.724 902.533 526.498 901.443 562.273C897.084 562.636 892.725 562.999 888.366 563.362C887.276 562.999 886.004 563.181 885.096 563.544C871.474 564.452 857.852 565.541 844.412 566.268ZM1002.97 689.208C1003.15 684.668 1003.15 680.128 1003.15 675.588C1003.7 676.315 1004.61 676.86 1005.88 676.86C1029.13 678.857 1052.38 680.128 1075.62 680.855C1075.62 683.76 1075.44 686.666 1075.44 689.39L1002.97 689.208ZM1117.58 269.722C1117.58 292.421 1117.4 315.121 1117.4 337.82C1088.52 338.002 1059.64 338.728 1030.76 340C1032.22 302.046 1033.3 263.911 1033.3 225.957C1057.28 227.229 1081.25 228.5 1104.87 229.408L1117.58 229.953C1117.58 243.209 1117.58 256.465 1117.58 269.722ZM1117.4 221.962C1113.22 221.781 1108.86 221.599 1104.68 221.418C1080.89 220.51 1056.92 219.238 1032.94 217.967C1032.94 209.795 1032.76 201.624 1032.58 193.452C1060.73 193.997 1088.88 194.905 1117.04 196.176C1117.4 204.892 1117.4 213.427 1117.4 221.962ZM1108.32 20.2095C1114.67 75.9594 1116.67 132.072 1117.22 188.367C1089.06 187.096 1060.73 186.188 1032.58 185.643C1032.03 160.765 1030.94 135.886 1028.76 111.007C1028.58 108.283 1026.22 107.194 1024.22 107.194C1023.5 106.467 1022.59 105.923 1021.32 105.923C977.908 105.196 934.318 104.47 890.908 103.562C890.908 100.838 890.908 97.9324 890.908 95.2085C890.727 71.9643 889.274 48.5384 888.184 25.2942C961.562 21.299 1034.94 19.6647 1108.32 20.2095ZM891.09 111.552C930.503 112.279 970.098 113.005 1009.51 113.55C1011.51 148.053 1012.6 182.556 1012.96 217.059C971.188 215.062 929.414 213.972 888.002 216.696C888.547 181.648 890.727 146.6 891.09 111.552ZM888.002 224.686C929.414 221.781 971.188 223.052 1012.96 225.049C1012.96 232.858 1012.96 240.667 1012.96 248.475C971.188 248.475 929.595 248.294 887.821 247.93C887.639 240.122 887.821 232.495 888.002 224.686ZM944.852 256.284C944.852 256.647 944.67 256.829 944.67 257.192C942.309 312.942 942.128 368.51 944.125 424.26C937.224 424.26 930.322 424.442 923.42 424.442C922.33 424.078 921.059 424.078 920.151 424.442C893.815 424.805 867.478 424.986 840.961 425.531C840.779 405.737 840.779 385.762 840.961 365.968C841.324 329.104 842.959 292.24 843.867 255.558C877.65 255.921 911.251 256.102 944.852 256.284ZM832.424 110.644C849.316 111.007 866.207 111.189 883.098 111.552C882.554 156.951 879.103 202.532 879.829 247.93C867.842 247.749 856.036 247.749 844.048 247.567C844.593 221.054 844.775 194.723 843.867 168.21C844.957 166.394 844.593 163.852 842.959 162.762C841.506 160.765 838.418 160.583 836.783 162.217C829.155 162.581 821.345 162.762 813.717 163.125C812.808 145.511 811.719 127.896 810.811 110.099C817.894 110.281 825.159 110.463 832.424 110.644ZM835.875 255.376C834.967 292.24 833.332 329.104 832.969 365.968C832.969 366.512 832.969 367.057 832.969 367.602C785.019 368.328 737.251 369.236 689.301 369.963C690.028 330.738 690.391 291.513 689.665 252.289C738.523 253.742 787.199 254.831 835.875 255.376ZM810.266 247.023C757.049 246.115 703.65 245.025 650.433 243.391L650.978 209.614H709.644L703.287 201.079H651.523V108.647H743.971V201.079H724.537L703.65 173.295C717.454 172.75 728.533 161.491 728.533 147.69C728.533 133.525 717.09 121.903 702.742 121.903H672.773L679.13 130.438H683.671H702.742C712.186 130.438 719.997 138.247 719.997 147.69C719.997 157.133 712.368 164.941 702.742 164.941H697.293H686.759L690.936 170.571L693.116 173.476L714.003 201.26L717.635 206.163L720.36 209.795H726.353H752.508V108.647C769.218 109.01 786.109 109.555 802.819 110.099L810.266 247.023ZM770.126 42.001C779.752 42.1826 789.378 42.5457 799.005 42.7274L802.274 101.928C791.558 101.564 780.842 101.201 769.944 101.02C770.489 81.2256 770.489 61.6133 770.126 42.001ZM676.951 40.5482C705.285 40.3666 733.8 41.093 762.134 41.8194C762.497 61.4317 762.497 80.4993 762.134 100.112C757.593 99.93 757.23 100.293 752.508 100.112H678.585C676.769 81.5888 676.224 58.5262 676.951 40.5482ZM543.999 43.2722C585.41 46.5409 626.458 40.9114 667.869 40.5482C668.232 40.5482 668.596 40.5482 669.141 40.5482C668.414 58.5262 668.959 81.5888 670.775 100.112H643.168V209.614L642.623 245.57C642.26 246.478 642.26 247.749 642.623 248.838L641.533 306.586C641.533 308.947 641.533 311.126 641.533 313.487C641.352 313.487 641.17 313.305 640.807 313.305C623.189 313.85 605.389 314.213 587.771 314.758C587.226 314.758 586.681 314.758 586.137 314.758C567.611 315.302 549.266 315.847 530.74 316.211C533.828 225.231 540.366 134.252 543.999 43.2722ZM530.195 324.201C547.631 323.656 565.068 323.293 582.686 322.748C581.959 346.174 581.596 369.6 581.233 393.025C563.615 392.844 546.178 392.481 528.56 391.936C528.742 369.236 529.469 346.719 530.195 324.201ZM455.909 207.435C479.884 207.253 503.859 206.527 527.834 204.892C527.652 209.432 527.289 214.154 527.107 218.694C503.314 219.602 479.703 219.42 456.091 218.33C456.091 215.97 455.909 213.427 455.909 211.067C455.909 209.795 455.909 208.706 455.909 207.435ZM452.277 292.785C453.73 292.24 455.183 291.15 455.364 289.153C457.907 268.088 456.817 247.204 456.091 226.139C479.521 227.229 502.951 227.41 526.381 226.502C523.293 282.978 520.75 339.455 520.206 396.113C520.206 399.381 523.293 400.471 525.654 399.745C544.907 400.289 564.16 400.652 583.231 400.834C584.139 401.197 585.228 401.197 586.137 400.834C603.391 401.016 620.646 401.016 637.901 400.834C637.719 402.65 637.537 404.466 637.174 406.1C632.633 437.153 631.725 466.027 634.086 497.261C596.489 497.988 558.892 498.896 521.295 497.988C485.515 497.08 449.734 494.174 413.953 497.625C413.953 478.92 415.769 460.034 416.133 441.33C416.678 440.059 416.859 438.788 416.314 437.516C416.496 431.161 416.314 424.623 416.496 418.267C416.859 417.178 416.859 416.088 416.496 414.999C416.496 398.473 416.496 381.948 416.133 365.423C415.769 341.452 415.588 317.482 415.77 293.693C426.667 293.874 437.746 293.874 448.644 294.056C450.824 294.419 451.732 293.693 452.277 292.785ZM416.496 286.066C416.859 265.182 417.767 244.48 419.584 223.597C429.21 224.505 438.836 225.231 448.281 225.776C448.826 245.933 449.916 266.09 447.736 286.247C437.202 286.247 426.849 286.247 416.496 286.066ZM352.018 163.488C352.018 163.307 352.018 163.125 352.018 162.944C352.018 157.677 352.2 152.23 352.2 146.963C384.711 147.326 417.223 147.326 449.916 146.6C449.007 166.757 447.918 187.096 447.918 207.253C447.918 210.885 447.918 214.335 448.099 217.967C437.383 217.422 426.849 216.514 416.133 215.425C414.498 215.243 413.408 215.97 412.863 217.059C412.319 217.604 411.955 218.33 411.774 219.42C409.776 241.575 408.868 263.729 408.504 286.066C389.07 285.884 369.454 285.884 350.02 285.702C351.11 245.025 351.836 204.166 352.018 163.488ZM349.657 293.693C369.273 293.874 388.707 293.874 408.323 294.056C407.959 318.026 408.323 341.997 408.686 365.968C408.868 381.767 409.049 397.565 409.049 413.364C405.235 413.546 401.239 413.546 397.425 413.727C397.788 399.381 398.333 385.217 399.241 370.871C401.058 368.51 399.968 364.333 396.335 364.333C379.989 364.515 363.461 364.515 347.114 364.696C348.022 340.907 348.93 317.3 349.657 293.693ZM391.068 372.142C389.252 402.832 388.525 433.521 389.07 464.211C361.463 464.574 334.037 465.845 306.429 467.843C307.882 436.064 308.791 404.284 309.154 372.505C336.398 372.505 363.642 372.324 391.068 372.142ZM309.699 285.521C309.699 246.478 309.154 207.435 308.609 168.392C320.415 168.028 332.221 167.847 344.026 167.484C343.663 206.89 343.118 246.296 341.847 285.702C331.131 285.521 320.415 285.521 309.699 285.521ZM341.665 293.511C340.939 317.118 340.031 340.726 338.941 364.515C329.133 364.515 319.143 364.696 309.335 364.696C309.699 340.907 309.88 317.118 309.88 293.329C320.415 293.329 330.949 293.511 341.665 293.511ZM308.609 160.401C308.609 155.68 308.427 150.958 308.427 146.237C320.415 146.6 332.221 146.782 344.208 146.963C344.208 151.14 344.026 155.317 344.026 159.493C332.221 159.675 320.415 160.038 308.609 160.401ZM344.208 138.973C331.494 138.791 318.598 138.428 305.884 138.065C303.523 137.157 300.254 138.247 300.254 141.515C300.799 181.285 301.162 220.873 301.344 260.461C273.555 261.187 245.584 261.369 217.795 261.187C215.252 215.788 219.611 168.755 220.883 123.719H221.064C222.154 123.719 222.88 123.356 223.607 122.811C263.565 120.087 303.523 119.361 343.482 120.45C343.663 120.45 343.845 120.45 344.208 120.269C344.208 126.625 344.39 132.799 344.208 138.973ZM189.279 44.1801C240.68 43.6353 292.081 42.001 343.482 37.8243C343.845 62.7029 344.208 87.7631 344.208 112.642C344.026 112.642 343.845 112.46 343.482 112.46C302.252 111.189 261.204 112.097 220.156 115.002C218.34 113.186 215.07 113.55 213.799 115.91C206.716 116.092 199.632 116.274 192.367 116.455C192.912 115.729 193.093 114.639 192.912 113.368C187.826 91.7582 189.098 66.698 189.279 44.1801ZM181.288 44.3617C181.106 67.606 179.835 93.3925 185.283 115.729C185.465 116.092 185.647 116.455 185.828 116.818C179.29 117 172.751 117.182 166.213 117.363C166.213 93.0294 165.849 68.8771 164.396 44.5433C170.027 44.3617 175.657 44.3617 181.288 44.3617ZM156.405 44.5433C160.945 113.368 155.86 182.374 157.858 251.199C149.503 251.562 141.148 251.926 132.793 252.107C130.795 252.107 106.82 253.378 106.275 253.015C104.277 183.464 103.551 113.913 100.645 44.3617C119.171 44.5433 137.879 44.5433 156.405 44.5433ZM92.6532 44.3617C95.9225 122.629 96.4673 207.253 99.0101 285.702H56.1459C56.1459 202.35 56.3275 94.1189 56.6908 43.9985C68.6783 44.1801 80.6657 44.1801 92.6532 44.3617ZM47.9727 291.513C47.9727 291.695 47.9727 291.695 47.9727 291.877C47.9727 310.036 47.9727 328.377 47.9727 346.537C41.9789 346.719 35.9852 346.9 29.8099 346.9C31.2629 308.765 32.5343 270.63 33.9873 232.495C38.7096 232.495 43.2503 232.495 47.9727 232.495C47.9727 252.107 47.9727 271.72 47.9727 291.513ZM48.1543 224.505C43.6136 224.505 39.0729 224.505 34.5322 224.505V223.96C34.5322 222.87 34.1689 221.962 33.624 221.418C35.9852 184.554 42.1606 145.874 32.5343 109.736C32.5343 109.555 32.3526 109.555 32.3526 109.555C31.9894 107.92 30.8996 106.467 28.7201 106.649C13.4633 107.92 -1.79344 108.828 -17.0502 109.191C-16.1421 99.5668 -13.5993 90.487 -13.236 80.8625C-12.8727 69.7851 -13.236 58.8894 -11.4197 47.9936C8.55936 48.3568 28.7201 48.72 48.8808 49.0832C48.3359 107.375 48.1543 165.849 48.1543 224.505ZM39.981 495.264C39.7994 490.542 39.4361 486.002 39.0729 481.281C42.1606 481.099 45.2482 480.918 48.3359 480.736C48.3359 485.458 48.3359 490.179 48.3359 494.901C45.4299 494.901 42.7054 495.082 39.981 495.264ZM10.5573 683.579C10.9205 663.24 11.2838 642.901 11.647 622.562L20.3652 622.199C21.8182 625.65 27.9936 625.105 27.9936 620.565C28.5385 593.326 28.5385 566.086 28.1752 538.847L45.6115 538.302C46.1564 547.927 46.7013 557.551 47.2461 567.176C47.4278 569.173 49.0624 571.352 51.242 571.171C77.7597 569.536 104.459 569.173 130.977 569.9C131.885 589.33 132.975 608.761 134.609 628.01C134.791 629.1 135.154 629.826 135.699 630.553C136.244 631.461 137.334 632.187 138.787 632.369C144.236 632.913 149.503 633.277 154.952 633.821C154.043 649.075 153.862 664.329 154.588 679.765C106.639 681.763 58.5071 683.034 10.5573 683.579ZM185.828 686.303C185.465 704.099 186.01 721.895 187.1 739.692C173.841 740.6 160.582 741.144 147.323 740.781C143.691 740.781 142.783 744.595 144.054 746.956C144.78 759.849 145.144 772.561 145.144 785.454C126.073 785.272 107.365 785.635 87.9308 786.906C88.6573 754.583 85.7513 722.44 85.388 690.116C118.989 689.208 152.409 687.937 185.828 686.303ZM87.0227 805.611C87.3859 801.979 87.5676 798.529 87.5676 794.897C114.812 793.081 140.785 793.081 167.666 793.807C167.847 796.713 168.029 799.618 168.21 802.524C141.511 803.25 114.267 804.703 87.0227 805.611ZM153.135 785.635C153.135 773.468 152.772 761.12 152.046 748.953C188.008 749.135 223.607 743.687 259.388 744.232C296.44 744.595 333.129 746.411 369.999 744.776C369.999 756.943 369.999 769.11 369.999 781.459C339.122 782.367 308.427 782.548 277.187 781.822C276.097 781.822 275.189 782.185 274.463 782.911C269.377 783.093 264.292 783.456 259.206 783.638C257.753 782.911 255.937 782.911 254.484 783.819C228.329 785.272 201.993 787.088 176.02 786.362C168.574 785.817 160.764 785.635 153.135 785.635ZM123.53 889.327C111.906 889.327 100.282 889.508 88.6573 889.69C88.4757 877.523 88.839 865.538 89.5655 853.371C118.081 853.371 146.415 853.734 174.931 854.46C177.837 854.46 179.108 851.918 178.563 849.557V849.375C179.108 831.034 176.929 812.33 175.839 793.989C176.02 793.989 176.202 793.989 176.384 793.989C201.812 794.715 227.603 792.899 253.394 791.446C252.667 822.863 252.667 854.279 253.394 885.695C209.985 888.963 166.757 889.145 123.53 889.327ZM200.722 926.372C196.544 926.735 192.185 927.099 188.008 927.462C188.19 920.561 188.19 913.66 188.371 906.76C188.371 903.309 188.734 899.859 188.371 896.59C192.549 896.59 196.726 896.227 200.903 896.227C200.903 903.854 200.903 911.3 201.085 918.927C200.722 921.287 200.54 924.011 200.722 926.372ZM77.0331 1034.97C62.1396 1035.15 47.4278 1036.06 32.5343 1037.69C32.8975 1023.53 33.4424 1009.36 34.1689 995.197C34.3505 992.291 31.9894 991.202 29.8099 991.383C29.265 990.657 28.7201 990.112 27.6303 989.931C21.0917 988.296 14.3715 988.115 7.65122 988.478V971.771C26.9038 973.224 46.338 971.045 65.7722 970.318C69.2231 970.137 72.8557 970.137 76.3066 970.137C77.0331 991.747 77.2148 1013.36 77.0331 1034.97ZM180.016 1022.07C179.835 1026.43 179.653 1030.97 179.471 1035.33C148.05 1036.42 116.446 1034.6 85.0248 1034.97C85.388 1013.36 85.2064 991.928 84.4799 970.318C106.275 969.773 128.071 969.773 150.048 970.5H150.229C150.411 980.306 150.411 990.112 149.503 999.737C149.139 1000.64 149.139 1001.55 149.321 1002.46C148.958 1005.73 152.409 1006.82 154.952 1005.73C159.311 1006.09 163.851 1006.27 168.21 1006.64C171.843 1006.82 176.202 1006.64 180.016 1007.18C180.38 1007.36 180.743 1007.36 180.924 1007.36C181.106 1012.09 180.198 1017.53 180.016 1022.07ZM183.649 999.555C180.743 999.01 177.292 999.192 174.931 999.01C169.119 998.647 163.125 998.284 157.313 997.739C158.947 977.764 157.131 956.88 156.768 936.905C172.933 936.542 188.916 935.633 205.081 933.818C205.444 933.999 205.989 934.181 206.534 934.181C248.49 935.634 290.083 930.186 331.857 930.549C332.402 953.067 333.129 975.584 333.674 998.102C283.726 998.647 233.778 999.01 183.649 999.555ZM347.659 1020.44C345.479 1020.08 342.937 1021.35 342.937 1024.25C342.937 1030.43 343.118 1036.42 343.118 1042.59C330.041 1043.68 316.964 1043.68 303.887 1042.96C303.16 1030.79 302.252 1018.44 301.525 1006.46C327.68 1006.27 353.834 1005.91 379.989 1005.73C380.17 1010.45 380.17 1015.17 380.352 1019.89C369.636 1020.08 358.557 1020.26 347.659 1020.44ZM351.473 1082.73C351.292 1064.57 351.11 1046.41 351.11 1028.25C376.175 1027.88 401.421 1027.34 426.486 1026.61C427.394 1046.59 428.483 1066.56 429.028 1086.54C403.056 1085.27 377.264 1084 351.473 1082.73ZM475.162 1048.22C474.617 1040.6 474.254 1033.15 474.254 1025.52C487.331 1025.16 500.408 1024.62 513.304 1024.25C513.485 1031.7 513.667 1039.32 513.849 1046.77C501.135 1047.31 488.239 1047.68 475.162 1048.22ZM522.022 1046.41C521.84 1038.96 521.659 1031.33 521.477 1023.89C525.291 1023.71 529.105 1023.71 532.738 1023.53C532.738 1030.97 532.92 1038.6 533.101 1046.04L522.022 1046.41ZM532.738 1015.54C484.607 1017.17 436.475 1018.62 388.525 1019.53C387.799 997.376 387.436 975.04 386.891 952.885C435.204 954.701 484.062 951.795 532.738 949.435C534.373 971.408 533.101 993.562 532.738 1015.54ZM474.617 944.168C472.437 916.929 471.166 889.69 471.529 862.269C471.529 856.821 471.711 851.373 472.074 845.925C504.949 844.654 537.642 844.654 570.517 844.836C571.243 876.433 571.788 908.031 572.514 939.629C540.003 940.9 507.31 942.897 474.617 944.168ZM573.967 947.619C574.512 969.773 575.057 992.11 575.602 1014.26C563.978 1014.63 552.354 1014.99 540.73 1015.35C541.093 993.199 542.364 971.045 540.548 949.072C551.809 948.527 562.888 947.982 573.967 947.619ZM540.911 1045.86C540.73 1038.42 540.548 1030.79 540.548 1023.34C553.08 1022.98 565.431 1022.62 577.963 1022.07C580.325 1023.16 583.775 1022.07 583.775 1018.62V1018.44C583.775 1018.08 583.775 1017.53 583.775 1017.17C583.231 993.199 582.686 969.047 581.959 945.076C589.951 943.987 597.942 943.26 605.752 942.716C607.569 976.311 608.295 1009.72 608.84 1043.32C586.318 1044.23 563.615 1044.95 540.911 1045.86ZM613.744 941.989C636.084 940.536 658.425 940.536 680.946 940.718C681.31 968.684 681.855 996.468 682.218 1024.43C660.422 1025.7 638.445 1026.98 616.65 1028.25C616.105 999.555 615.379 970.681 613.744 941.989ZM616.832 1042.96C616.832 1040.6 616.65 1038.42 616.65 1036.06C638.445 1034.78 660.422 1033.51 682.218 1032.24C682.218 1034.97 682.218 1037.69 682.399 1040.41C660.604 1041.5 638.809 1042.23 616.832 1042.96ZM580.324 937.268C579.78 906.578 579.053 875.707 578.508 845.017C603.936 845.199 629.364 845.38 654.792 845.199C656.063 845.744 657.335 845.744 658.606 845.199C670.23 845.017 681.673 844.836 693.116 844.472H693.297C695.658 845.38 698.928 844.109 698.928 841.022C699.291 824.497 699.291 807.972 699.109 791.446C707.101 791.265 715.093 791.083 723.084 790.902C726.535 838.661 723.084 886.239 719.088 933.818C672.955 932.728 626.64 931.457 580.324 937.268ZM762.679 1070.92C738.704 1070.2 714.729 1072.19 690.936 1074.01C690.209 1029.7 689.665 985.209 688.938 940.9C736.525 941.626 784.111 943.805 831.516 939.084C831.516 947.8 831.516 956.335 831.516 965.052C831.698 994.107 830.971 1023.34 832.061 1052.4C832.243 1059.84 832.606 1066.93 832.606 1074.01C808.994 1074.19 786.109 1071.65 762.679 1070.92ZM831.516 931.094C796.825 934.544 762.134 934.362 727.443 933.818C731.439 886.058 734.89 838.48 731.439 790.72C765.585 789.994 799.731 789.267 833.696 788.541C832.606 835.937 831.698 883.516 831.516 931.094ZM698.564 783.275C698.383 780.006 698.201 776.737 698.201 773.287H698.383V760.938C746.333 761.302 794.282 760.575 842.232 758.759C842.595 758.759 842.959 758.578 843.322 758.396C848.589 758.578 853.675 758.578 858.942 758.759C858.215 761.846 857.852 764.933 857.852 768.202C857.852 770.2 858.215 772.197 858.215 774.195C858.397 775.284 858.942 778.008 858.579 779.643C858.397 779.824 858.215 780.006 858.034 780.188C853.675 780.006 849.316 780.188 844.957 780.551C844.412 780.188 843.685 780.006 842.959 780.006C795.009 781.277 746.696 782.185 698.564 783.275ZM839.871 874.617C849.497 874.98 859.305 874.98 868.932 875.344C869.113 906.033 869.295 936.541 869.476 967.231C859.487 967.413 849.316 967.413 839.326 967.594C839.326 964.144 839.326 960.694 839.326 957.243C839.326 929.641 839.508 902.038 839.871 874.617ZM841.324 1078.55C841.506 1067.65 840.053 1056.76 839.871 1045.86C839.326 1022.44 839.508 999.01 839.508 975.584C849.497 975.403 859.668 975.403 869.658 975.221L870.203 1080.37C860.395 1079.64 850.95 1079.28 841.324 1078.55ZM840.053 866.627C840.416 840.84 840.961 815.235 841.506 789.449C853.311 786.725 867.478 788.723 879.648 789.449C879.284 815.417 879.466 841.567 879.103 867.535C866.207 867.172 853.13 866.99 840.053 866.627ZM876.923 875.344C892.361 875.707 907.618 876.07 923.057 876.433C923.238 899.859 923.42 923.285 923.602 946.711C908.163 946.529 892.725 946.892 877.286 948.163L876.923 875.344ZM877.468 955.972C892.906 954.701 908.345 954.338 923.783 954.519C923.783 958.514 923.783 962.328 923.783 966.323C908.345 966.505 892.906 966.686 877.468 966.868C877.468 963.418 877.468 959.604 877.468 955.972ZM878.013 1080.37C877.831 1045.14 877.65 1010.09 877.468 974.858C929.777 974.132 982.086 973.587 1034.39 973.224C1032.22 1006.09 1035.48 1038.78 1038.03 1071.65C984.992 1079.28 931.593 1082 878.013 1080.37ZM931.775 966.323C931.775 961.602 931.775 957.062 931.593 952.34C931.956 951.432 931.956 950.161 931.593 949.253C931.412 925.101 931.23 900.767 931.048 876.615C990.986 877.523 1051.1 877.341 1111.04 876.433C1112.31 891.324 1110.5 905.67 1109.59 920.743C1109.23 927.462 1109.04 934.181 1109.41 940.9C1109.77 947.255 1113.58 959.059 1110.5 965.234C1050.92 965.234 991.349 965.597 931.775 966.323ZM1042.75 1028.07C1041.66 1009.91 1041.11 991.565 1042.39 973.224C1079.8 973.042 1117.22 972.861 1154.63 972.861C1154.81 989.567 1155 1006.46 1155.36 1023.16C1117.94 1025.7 1080.35 1028.61 1042.75 1028.07ZM1155.36 689.753L1083.43 689.571C1083.43 686.666 1083.62 683.942 1083.62 681.036C1087.25 680.128 1087.43 674.68 1083.8 673.591C1083.8 671.23 1083.8 668.869 1083.98 666.327C1097.06 669.232 1112.49 667.235 1125.57 667.235C1132.29 667.235 1146.28 669.959 1154.45 667.235C1154.81 667.235 1155.18 667.053 1155.36 666.872C1155.36 674.499 1155.36 682.126 1155.36 689.753ZM1155.54 655.613C1155.18 655.613 1154.81 655.613 1154.27 655.794C1152.63 655.976 1151.54 657.066 1151 658.337L1150.82 658.518C1150.46 658.882 1150.27 659.245 1150.09 659.608C1149.55 659.608 1148.82 659.608 1148.09 659.608C1148.46 646.17 1148.82 632.732 1149.18 619.294C1151.36 619.294 1153.54 619.112 1155.72 619.112C1155.54 631.279 1155.54 643.446 1155.54 655.613ZM1155.72 610.94C1145.01 611.303 1134.47 611.667 1123.76 611.848C1123.94 593.326 1123.94 574.803 1124.12 556.28C1134.65 556.28 1145.37 556.098 1155.9 556.098C1155.9 574.258 1155.9 592.599 1155.72 610.94ZM1162.44 881.699C1162.44 870.077 1162.62 839.206 1162.81 805.611H1175.16V906.578H1241.81L1235.46 898.043H1183.69V805.611H1276.14V898.043H1256.71L1235.82 870.259C1249.62 869.714 1260.7 858.455 1260.7 844.654C1260.7 830.49 1249.26 818.867 1234.91 818.867H1204.94L1211.3 827.402H1215.84H1234.91C1244.36 827.402 1252.17 835.211 1252.17 844.654C1252.17 854.097 1244.54 861.906 1234.91 861.906H1229.46H1218.93L1223.11 867.535L1225.29 870.441L1246.17 898.225L1249.81 903.128L1252.53 906.76H1258.52H1284.5V802.342C1284.68 802.342 1284.68 802.342 1284.86 802.342C1284.86 802.161 1284.86 802.161 1285.04 801.979C1286.31 800.163 1323.91 802.887 1326.63 803.069C1332.45 803.25 1338.26 803.25 1343.89 803.432C1344.98 857.911 1345.71 912.208 1344.43 966.686C1283.77 965.96 1223.11 965.415 1162.44 965.415C1162.26 937.086 1162.26 909.302 1162.44 881.699ZM1162.62 972.861C1176.06 972.861 1189.69 973.042 1203.13 973.042C1203.49 993.381 1204.04 1013.72 1204.4 1034.06C1204.58 1044.59 1204.94 1055.12 1205.12 1065.84C1205.12 1067.65 1205.67 1072.01 1206.03 1077.1C1205.49 1077.1 1205.12 1077.1 1204.58 1077.1C1191.14 1076.37 1178.06 1074.92 1164.8 1076.19C1163.53 1041.69 1162.81 1007.36 1162.62 972.861ZM1204.58 1099.25C1204.22 1099.61 1203.85 1099.98 1203.67 1100.34C1191.14 1100.34 1178.43 1100.52 1165.89 1100.52C1165.71 1094.89 1165.53 1089.26 1165.35 1083.82C1179.33 1082.36 1192.77 1084.54 1206.76 1085.09C1206.76 1091.62 1206.4 1097.8 1204.58 1099.25ZM1251.98 1099.98C1239.09 1100.16 1226.01 1100.34 1213.12 1100.34C1213.3 1099.61 1213.48 1098.71 1213.84 1097.62C1214.75 1093.98 1215.11 1089.63 1215.11 1085.09C1227.28 1084.54 1238.91 1081.45 1251.08 1081.45C1251.8 1087.63 1252.17 1093.8 1251.98 1099.98ZM1298.66 1099.43C1285.95 1099.61 1273.24 1099.61 1260.52 1099.8C1260.34 1091.81 1259.61 1084 1258.34 1076.19C1257.98 1073.83 1255.98 1073.1 1254.16 1073.46H1253.98C1240.72 1072.92 1227.83 1076.01 1214.75 1076.91C1214.21 1068.74 1213.12 1060.57 1212.93 1054.03C1212.39 1027.16 1211.66 1000.28 1211.12 973.405C1240.91 973.587 1270.69 973.587 1300.66 973.95C1301.21 1015.72 1300.66 1057.67 1298.66 1099.43ZM1361.33 1098.52C1343.16 1098.89 1325 1099.07 1306.84 1099.25C1308.83 1057.48 1309.38 1015.54 1308.65 973.769C1321.37 973.95 1334.08 973.95 1346.61 974.132C1347.7 974.677 1348.97 974.677 1350.06 974.132C1355.15 974.132 1360.05 974.313 1365.14 974.313C1363.87 1015.9 1362.6 1057.3 1361.33 1098.52ZM1368.41 817.596C1367.86 867.172 1366.59 916.929 1365.32 966.505C1361.14 966.505 1356.78 966.505 1352.61 966.323C1353.88 911.844 1353.15 857.547 1352.06 803.069C1357.51 803.25 1363.14 803.25 1368.59 803.432C1368.41 808.153 1368.41 812.875 1368.41 817.596ZM1325 794.715C1325.18 790.175 1325.18 785.635 1325.36 780.914C1325.54 780.914 1325.73 780.732 1325.91 780.551C1340.07 781.822 1354.24 781.822 1368.59 780.732C1368.59 785.635 1368.59 790.538 1368.59 795.442C1353.88 795.26 1339.35 794.897 1325 794.715ZM1368.95 338.91C1367.5 305.496 1366.05 272.264 1365.87 238.851C1379.85 239.395 1393.65 239.94 1407.64 240.303C1408.73 273.172 1409.64 306.041 1410.73 338.91C1410.73 338.91 1410.73 338.91 1410.55 338.91C1396.74 340.726 1383.12 340.544 1369.32 338.728C1369.14 338.91 1368.95 338.91 1368.95 338.91ZM1410 347.082C1412.18 363.789 1411.45 380.677 1413.27 397.565C1399.1 397.202 1384.94 396.657 1370.77 395.568C1370.41 379.406 1369.86 363.244 1369.14 346.9C1382.94 348.716 1396.38 348.716 1410 347.082ZM1370.22 474.017C1370.22 473.654 1370.22 473.291 1370.22 473.109C1370.22 472.564 1370.22 472.02 1370.22 471.293C1370.22 470.93 1370.04 470.748 1370.04 470.385C1371.31 448.049 1371.5 425.894 1371.13 403.558C1385.48 404.648 1399.65 405.192 1414 405.556C1416.18 460.942 1417.27 516.51 1417.08 572.079C1402.37 573.35 1387.48 573.895 1372.77 573.713C1371.86 540.3 1370.77 507.068 1370.22 474.017ZM1372.22 997.376C1372.4 989.749 1372.77 982.304 1372.95 974.677C1397.65 975.04 1422.35 975.585 1447.05 975.948C1447.42 983.03 1447.78 990.294 1448.14 997.376H1372.22ZM1448.14 885.513C1445.42 885.331 1444.15 887.511 1444.33 889.69C1444.15 890.053 1444.15 890.416 1444.15 890.961C1444.51 916.566 1445.42 942.171 1446.69 967.776C1422.17 967.413 1397.65 966.868 1373.31 966.505C1374.77 916.748 1376.04 867.172 1376.4 817.415C1376.76 777.827 1376.4 738.057 1375.67 698.469C1409.09 698.651 1442.51 698.651 1475.93 698.833C1478.48 761.302 1476.84 823.952 1471.21 886.239C1463.58 886.058 1455.95 885.876 1448.14 885.513ZM1452.14 893.685L1551.49 897.135C1550.76 921.469 1550.04 945.621 1549.13 969.955C1517.53 969.229 1486.1 968.684 1454.5 968.139C1453.59 943.26 1452.68 918.563 1452.14 893.685ZM1457.22 1018.08C1456.32 1004.09 1455.77 989.931 1455.05 975.948C1506.63 976.856 1558.21 977.945 1609.61 979.398C1611.97 992.11 1613.42 1004.82 1614.33 1017.53C1562.02 1018.62 1509.53 1018.8 1457.22 1018.08ZM1654.47 972.679C1621.96 971.771 1589.63 970.863 1557.12 970.137C1557.85 945.803 1558.57 921.651 1559.48 897.317L1656.11 900.586C1654.29 924.738 1653.2 948.708 1654.47 972.679ZM1656.65 892.595L1624.32 891.506C1626.68 838.48 1628.14 785.454 1628.5 732.428C1639.22 732.246 1649.75 732.065 1660.47 731.883C1660.47 760.03 1660.65 788.359 1660.65 816.507C1660.83 841.93 1658.65 867.354 1656.65 892.595ZM1628.5 678.494C1639.22 679.402 1649.75 679.039 1660.47 677.404L1660.65 723.893C1649.93 724.074 1639.4 724.256 1628.68 724.438C1628.68 709.184 1628.5 693.93 1628.5 678.494ZM1628.5 670.504C1628.5 664.148 1628.5 657.792 1628.5 651.255C1639.22 651.436 1649.75 651.436 1660.47 651.436C1660.47 657.429 1660.47 663.24 1660.47 669.232C1649.75 671.23 1639.22 671.593 1628.5 670.504ZM1660.83 643.628C1627.96 643.264 1594.9 643.083 1562.02 642.901C1562.39 592.418 1564.39 382.13 1564.93 331.646C1582.55 332.009 1600.17 329.649 1617.6 328.377C1620.33 328.196 1621.6 325.653 1621.42 323.474C1621.6 298.414 1621.42 273.354 1621.05 248.294C1647.57 249.202 1674.09 250.291 1700.61 251.199C1700.61 251.199 1700.61 251.199 1700.61 251.381C1702.97 293.329 1704.42 335.278 1704.97 377.408C1671.73 377.227 1638.85 379.406 1605.98 383.946C1603.62 383.038 1600.53 384.309 1600.89 387.396C1604.34 416.633 1604.34 453.497 1602.16 483.46H1585.27V592.962H1651.93L1645.57 584.427H1593.81V491.995H1686.26V584.427H1666.82L1645.94 556.643C1659.74 556.098 1670.82 544.839 1670.82 531.038C1670.82 516.874 1659.38 505.252 1645.03 505.252H1615.06L1621.42 513.787H1625.96H1645.03C1654.47 513.787 1662.28 521.595 1662.28 531.038C1662.28 540.481 1654.65 548.29 1645.03 548.29H1639.58H1629.04L1633.22 553.919L1635.4 556.825L1656.29 584.609L1659.92 589.512L1662.28 592.599C1662.1 609.306 1663.01 626.921 1660.83 643.628ZM1745.11 895.682C1718.22 894.774 1691.52 893.866 1664.64 892.958C1666.64 867.535 1668.82 841.93 1668.64 816.688C1668.64 787.451 1668.46 758.214 1668.46 728.978C1668.64 728.251 1668.64 727.343 1668.46 726.617C1668.46 701.738 1668.28 676.678 1668.28 651.799C1704.42 652.162 1740.56 652.526 1776.71 653.07C1775.98 668.869 1778.71 684.487 1778.52 700.467C1778.34 715.539 1776.53 730.612 1775.44 745.503C1769.26 745.321 1763.27 744.958 1757.09 744.776C1756.37 744.776 1755.82 744.958 1755.28 745.14C1753.46 745.321 1751.83 746.592 1751.64 748.953C1748.92 797.802 1746.74 846.652 1745.11 895.682ZM1790.51 957.062C1777.44 957.062 1764.36 957.062 1751.28 957.062C1751.64 939.265 1752.19 921.651 1752.73 903.854L1792.33 905.125C1791.78 922.559 1791.06 939.81 1790.51 957.062ZM1792.51 897.317C1779.25 896.953 1766.17 896.409 1752.92 896.046C1754.55 848.286 1756.55 800.526 1759.45 752.948C1771.8 753.493 1783.97 754.038 1796.32 754.401C1795.23 801.071 1794.14 847.741 1792.69 894.411C1792.69 895.319 1792.69 896.227 1792.51 897.317ZM1793.06 1101.07C1794.33 1071.83 1795.23 1042.41 1796.32 1013.17C1815.94 1013.54 1836.28 1013.54 1855.9 1013.17V1066.56H1856.26C1856.26 1076.01 1856.08 1086.18 1855.9 1097.44C1835.37 1098.52 1813.4 1099.8 1793.06 1101.07ZM1955.79 1091.08C1920.38 1092.9 1899.31 1094.71 1863.71 1096.89C1863.89 1090.17 1863.89 1073.65 1863.89 1066.56H1922.37L1916.02 1058.03H1864.25V965.597H1956.7V1058.03H1937.27L1916.38 1030.24C1930.18 1029.7 1941.26 1018.44 1941.26 1004.64C1941.26 990.475 1929.82 978.853 1915.47 978.853H1885.69L1892.04 987.388H1896.58H1915.65C1925.1 987.388 1932.91 995.197 1932.91 1004.64C1932.91 1014.08 1925.28 1021.89 1915.65 1021.89H1910.21H1899.67L1903.85 1027.52L1906.03 1030.43L1926.91 1058.21L1930.55 1063.11L1933.27 1066.75H1939.27H1956.34C1956.52 1066.75 1956.52 1066.75 1956.7 1066.75C1956.34 1073.1 1956.16 1084.72 1955.79 1091.08ZM2002.65 1064.02C2002.11 1070.74 2001.38 1082.36 2000.84 1089.08C1988.49 1089.63 1976.14 1090.17 1963.79 1090.72C1964.15 1084.18 1964.33 1072.92 1964.51 1066.38H1965.42C1977.77 1065.84 1990.12 1064.75 2002.65 1064.02ZM2029.72 957.062C1991.03 957.062 1952.34 957.062 1913.66 957.062C1914.75 917.474 1914.93 877.886 1914.38 838.298C1919.47 838.116 1924.55 838.117 1929.64 837.935C1930.73 838.48 1932.18 838.48 1933.45 837.935C1966.33 837.209 1999.38 836.119 2032.26 836.664C2031.17 876.797 2030.26 916.929 2029.72 957.062ZM2074.76 830.308C2028.63 827.221 1982.31 828.674 1936 829.763C1937.63 806.519 1938.36 783.456 1937.99 760.212L1943.99 760.394H1944.17C1946.53 762.028 1950.71 761.12 1950.34 757.306C1949.44 740.963 1949.26 724.619 1949.8 708.094H1949.98C1982.13 707.731 2014.46 707.912 2046.61 708.639C2056.23 708.82 2065.86 709.365 2075.67 709.728C2076.21 750.043 2076.03 790.175 2074.76 830.308ZM2074.03 658.518C2074.58 673.046 2075.12 687.392 2075.31 701.92C2069.49 701.738 2063.86 701.375 2058.05 701.193C2022.09 700.104 1985.94 699.922 1949.98 700.285C1950.53 685.576 1951.25 670.685 1952.34 655.976C1993.03 656.702 2033.53 657.61 2074.03 658.518ZM2045.7 507.612C2045.15 520.869 2044.79 533.944 2044.25 547.2C2038.25 547.019 2032.44 546.655 2026.45 546.474C2027.17 533.762 2027.72 521.05 2028.26 508.339C2034.08 507.976 2039.89 507.794 2045.7 507.612ZM2047.15 474.38C2041.16 474.562 2035.35 474.925 2029.35 475.107C2030.26 438.243 2030.08 401.379 2028.63 364.333C2035.53 364.333 2042.25 364.152 2049.15 364.152C2048.42 400.652 2047.52 437.153 2046.97 473.654C2046.97 474.017 2046.97 474.199 2047.15 474.38ZM2049.33 356.162C2042.07 356.162 2034.62 356.343 2027.36 356.525C2029.53 325.835 2031.53 295.145 2030.81 264.456C2032.08 264.456 2033.71 264.456 2034.44 264.274C2036.8 264.093 2039.16 263.911 2041.52 263.729C2044.61 263.548 2047.7 263.366 2050.6 263.185C2050.42 294.237 2050.06 325.29 2049.33 356.162ZM2050.79 255.376C2044.25 255.739 2037.89 256.102 2031.35 256.647C2030.26 256.829 2028.99 257.01 2027.9 257.192C2025.54 256.647 2022.81 257.737 2022.81 260.824C2023.54 292.785 2021.54 324.564 2019.36 356.525C2009.37 356.706 1999.57 356.888 1989.58 356.888C1990.3 311.126 1990.48 265.364 1990.12 219.42C2010.28 218.694 2030.44 217.786 2050.6 217.059C2050.79 217.059 2050.79 217.059 2050.97 217.059C2050.97 229.953 2050.97 242.664 2050.79 255.376ZM2050.6 209.251C2030.44 209.977 2010.28 210.885 1990.12 211.611C1989.58 149.869 1988.31 88.3079 1986.13 26.5653C2005.92 25.4758 2025.9 24.5678 2045.7 23.8414C2049.51 85.584 2050.97 147.508 2050.97 209.251C2050.79 209.251 2050.79 209.251 2050.6 209.251ZM2103.28 303.317C2102.55 320.932 2098.74 338.728 2095.83 356.162C2082.93 356.162 2070.22 356.162 2057.32 356.343C2058.78 283.886 2059.69 211.611 2058.23 139.336C2072.58 137.52 2087.11 136.068 2101.64 134.796C2099.28 172.75 2098.74 210.885 2100.55 248.838C2101.46 266.816 2104 285.158 2103.28 303.317Z" fill="#BCBCBC"/>
</g>
</svg>
